<svg width="503" height="307" viewBox="0 0 503 307" fill="none" xmlns="http://www.w3.org/2000/svg">
<path d="M38.5768 5.01001V286.57" stroke="#F0F0F0"/>
<path d="M80.6605 5.01001V286.57" stroke="#F0F0F0"/>
<path d="M122.744 5.01001V286.57" stroke="#F0F0F0"/>
<path d="M164.828 5.01001V286.57" stroke="#F0F0F0"/>
<path d="M206.912 5.01001V286.57" stroke="#F0F0F0"/>
<path d="M248.995 5.01001V286.57" stroke="#F0F0F0"/>
<path d="M291.079 5.01001V286.57" stroke="#F0F0F0"/>
<path d="M333.163 5.01001V286.57" stroke="#F0F0F0"/>
<path d="M375.247 5.01001V286.57" stroke="#F0F0F0"/>
<path d="M417.331 5.01001V286.57" stroke="#F0F0F0"/>
<path d="M459.414 5.01001V286.57" stroke="#F0F0F0"/>
<path d="M502.5 5.01001V286.57" stroke="#F0F0F0"/>
<path d="M39.0778 287.071H501.999" stroke="#F0F0F0"/>
<path d="M39.0778 230.96H501.999" stroke="#F0F0F0"/>
<path d="M39.0778 174.848H501.999" stroke="#F0F0F0"/>
<path d="M39.0778 117.734H501.999" stroke="#F0F0F0"/>
<path d="M39.0778 61.6227H501.999" stroke="#F0F0F0"/>
<path d="M39.0778 4.50903H501.999" stroke="#F0F0F0"/>
<path d="M39.0778 287.071H501.999" stroke="#F0F0F0"/>
<path d="M38.5768 5.01001V286.57" stroke="#F0F0F0"/>
<path d="M34.9176 300.818H32.9205L32.4567 300.627C31.9423 300.464 31.5468 300.215 31.2701 299.88C30.9935 299.542 30.8551 299.122 30.8551 298.62C30.8551 298.161 30.956 297.772 31.1578 297.453C31.3629 297.134 31.6526 296.892 32.027 296.726C32.4046 296.56 32.8505 296.477 33.3649 296.477H35.6403V303.586H34.6979V297.248H33.3649C32.844 297.248 32.4518 297.372 32.1881 297.619C31.9277 297.867 31.7975 298.2 31.7975 298.62C31.7975 298.894 31.8545 299.138 31.9684 299.353C32.0856 299.568 32.2581 299.737 32.486 299.861C32.7138 299.984 32.997 300.046 33.3356 300.046H34.9225L34.9176 300.818ZM33.316 300.329L31.5875 303.586H30.5865L32.3639 300.329H33.316ZM40.7867 300.593V301.325H37.9938V300.593H40.7867ZM38.1842 298.303V303.586H37.2809V298.303H38.1842ZM41.5192 298.303V303.586H40.611V298.303H41.5192ZM45.4547 301.262H43.7213L43.7115 300.539H45.1276C45.4075 300.539 45.6403 300.512 45.8258 300.456C46.0146 300.401 46.1562 300.318 46.2506 300.207C46.345 300.097 46.3922 299.96 46.3922 299.797C46.3922 299.67 46.3645 299.559 46.3092 299.465C46.2571 299.367 46.1774 299.288 46.0699 299.226C45.9625 299.161 45.8291 299.114 45.6696 299.084C45.5133 299.052 45.3294 299.035 45.1178 299.035H43.9606V303.586H43.0573V298.303H45.1178C45.4531 298.303 45.7542 298.332 46.0211 298.391C46.2913 298.449 46.5208 298.539 46.7096 298.659C46.9017 298.777 47.0481 298.926 47.149 299.109C47.25 299.291 47.3004 299.506 47.3004 299.753C47.3004 299.913 47.2679 300.064 47.2028 300.207C47.1377 300.351 47.0416 300.477 46.9147 300.588C46.7877 300.699 46.6315 300.79 46.4459 300.862C46.2604 300.93 46.0472 300.974 45.8063 300.993L45.4547 301.262ZM45.4547 303.586H43.3942L43.8434 302.854H45.4547C45.7054 302.854 45.9137 302.823 46.0797 302.761C46.2457 302.696 46.3694 302.605 46.4508 302.488C46.5354 302.367 46.5778 302.224 46.5778 302.058C46.5778 301.892 46.5354 301.75 46.4508 301.633C46.3694 301.513 46.2457 301.421 46.0797 301.36C45.9137 301.295 45.7054 301.262 45.4547 301.262H44.0826L44.0924 300.539H45.8063L46.1334 300.813C46.4231 300.836 46.6689 300.907 46.8707 301.028C47.0726 301.148 47.2255 301.301 47.3297 301.487C47.4339 301.669 47.486 301.867 47.486 302.082C47.486 302.33 47.4388 302.548 47.3444 302.737C47.2532 302.925 47.1198 303.083 46.944 303.21C46.7682 303.334 46.555 303.428 46.3043 303.493C46.0537 303.555 45.7705 303.586 45.4547 303.586Z" fill="#A3A3A3"/>
<path d="M75.5785 297.185H76.7553C77.1654 297.185 77.5447 297.255 77.893 297.395C78.2445 297.531 78.5505 297.727 78.8109 297.981C79.0746 298.235 79.2797 298.537 79.4262 298.889C79.5727 299.237 79.6459 299.623 79.6459 300.046C79.6459 300.469 79.5727 300.857 79.4262 301.208C79.2797 301.56 79.0746 301.864 78.8109 302.121C78.5505 302.375 78.2445 302.572 77.893 302.712C77.5447 302.849 77.1654 302.917 76.7553 302.917H75.5785C75.1684 302.917 74.7891 302.849 74.4408 302.712C74.0925 302.572 73.7865 302.375 73.5228 302.121C73.2624 301.867 73.059 301.566 72.9125 301.218C72.7693 300.866 72.6977 300.479 72.6977 300.056C72.6977 299.633 72.7693 299.247 72.9125 298.899C73.059 298.547 73.2624 298.244 73.5228 297.99C73.7865 297.733 74.0925 297.535 74.4408 297.395C74.7891 297.255 75.1684 297.185 75.5785 297.185ZM75.5785 297.927C75.1521 297.927 74.7908 298.017 74.4945 298.196C74.1983 298.371 73.9737 298.619 73.8207 298.938C73.6677 299.257 73.5912 299.629 73.5912 300.056C73.5912 300.378 73.6335 300.67 73.7182 300.93C73.8061 301.19 73.9346 301.413 74.1039 301.599C74.2732 301.784 74.4815 301.928 74.7289 302.029C74.9763 302.129 75.2595 302.18 75.5785 302.18H76.765C77.1882 302.18 77.5463 302.092 77.8393 301.916C78.1355 301.737 78.3601 301.488 78.5131 301.169C78.6693 300.847 78.7475 300.473 78.7475 300.046C78.7475 299.727 78.7035 299.437 78.6156 299.177C78.5277 298.917 78.3992 298.694 78.2299 298.508C78.0639 298.323 77.8572 298.179 77.6098 298.078C77.3656 297.977 77.084 297.927 76.765 297.927H75.5785ZM76.6234 296.184V303.879H75.7201V296.184H76.6234ZM82.893 303.684C82.5251 303.684 82.1915 303.622 81.892 303.498C81.5958 303.371 81.3402 303.194 81.1254 302.966C80.9138 302.738 80.751 302.468 80.6371 302.156C80.5232 301.843 80.4662 301.501 80.4662 301.13V300.925C80.4662 300.495 80.5297 300.113 80.6566 299.778C80.7836 299.439 80.9561 299.153 81.1742 298.918C81.3923 298.684 81.6397 298.506 81.9164 298.386C82.1931 298.266 82.4796 298.205 82.7758 298.205C83.1534 298.205 83.4789 298.27 83.7523 298.401C84.029 298.531 84.2553 298.713 84.4311 298.948C84.6068 299.179 84.737 299.452 84.8217 299.768C84.9063 300.08 84.9486 300.422 84.9486 300.793V301.198H81.0033V300.461H84.0453V300.393C84.0323 300.158 83.9835 299.931 83.8988 299.709C83.8174 299.488 83.6872 299.306 83.5082 299.162C83.3292 299.019 83.085 298.948 82.7758 298.948C82.5707 298.948 82.3819 298.991 82.2094 299.079C82.0368 299.164 81.8887 299.291 81.765 299.46C81.6413 299.629 81.5453 299.836 81.477 300.08C81.4086 300.324 81.3744 300.606 81.3744 300.925V301.13C81.3744 301.381 81.4086 301.617 81.477 301.838C81.5486 302.056 81.6511 302.248 81.7846 302.414C81.9213 302.58 82.0857 302.711 82.2777 302.805C82.473 302.899 82.6944 302.947 82.9418 302.947C83.2608 302.947 83.531 302.881 83.7523 302.751C83.9737 302.621 84.1674 302.447 84.3334 302.229L84.8803 302.663C84.7663 302.836 84.6215 303 84.4457 303.156C84.2699 303.313 84.0534 303.44 83.7963 303.537C83.5424 303.635 83.2413 303.684 82.893 303.684ZM88.4838 301.262H86.7504L86.7406 300.539H88.1566C88.4366 300.539 88.6693 300.512 88.8549 300.456C89.0437 300.401 89.1853 300.318 89.2797 300.207C89.3741 300.097 89.4213 299.96 89.4213 299.797C89.4213 299.67 89.3936 299.559 89.3383 299.465C89.2862 299.367 89.2064 299.288 89.099 299.226C88.9916 299.161 88.8581 299.114 88.6986 299.084C88.5424 299.052 88.3585 299.035 88.1469 299.035H86.9896V303.586H86.0863V298.303H88.1469C88.4822 298.303 88.7833 298.332 89.0502 298.391C89.3204 298.449 89.5499 298.539 89.7387 298.659C89.9307 298.777 90.0772 298.926 90.1781 299.109C90.279 299.291 90.3295 299.506 90.3295 299.753C90.3295 299.913 90.2969 300.064 90.2318 300.207C90.1667 300.351 90.0707 300.477 89.9437 300.588C89.8168 300.699 89.6605 300.79 89.475 300.862C89.2895 300.93 89.0762 300.974 88.8353 300.993L88.4838 301.262ZM88.4838 303.586H86.4232L86.8725 302.854H88.4838C88.7344 302.854 88.9428 302.823 89.1088 302.761C89.2748 302.696 89.3985 302.605 89.4799 302.488C89.5645 302.367 89.6068 302.224 89.6068 302.058C89.6068 301.892 89.5645 301.75 89.4799 301.633C89.3985 301.513 89.2748 301.421 89.1088 301.36C88.9428 301.295 88.7344 301.262 88.4838 301.262H87.1117L87.1215 300.539H88.8353L89.1625 300.813C89.4522 300.836 89.698 300.907 89.8998 301.028C90.1016 301.148 90.2546 301.301 90.3588 301.487C90.463 301.669 90.515 301.867 90.515 302.082C90.515 302.33 90.4678 302.548 90.3734 302.737C90.2823 302.925 90.1488 303.083 89.973 303.21C89.7973 303.334 89.584 303.428 89.3334 303.493C89.0827 303.555 88.7995 303.586 88.4838 303.586Z" fill="#A3A3A3"/>
<path d="M114.476 296.477H115.389L117.718 302.273L120.042 296.477H120.96L118.07 303.586H117.357L114.476 296.477ZM114.178 296.477H114.984L115.115 300.813V303.586H114.178V296.477ZM120.447 296.477H121.253V303.586H120.316V300.813L120.447 296.477ZM125.887 302.683V299.963C125.887 299.755 125.845 299.574 125.76 299.421C125.679 299.265 125.555 299.144 125.389 299.06C125.223 298.975 125.018 298.933 124.774 298.933C124.546 298.933 124.346 298.972 124.173 299.05C124.004 299.128 123.87 299.231 123.773 299.358C123.678 299.485 123.631 299.621 123.631 299.768H122.728C122.728 299.579 122.777 299.392 122.874 299.206C122.972 299.021 123.112 298.853 123.294 298.703C123.48 298.55 123.701 298.43 123.958 298.342C124.219 298.251 124.508 298.205 124.827 298.205C125.211 298.205 125.55 298.27 125.843 298.401C126.139 298.531 126.37 298.728 126.536 298.991C126.706 299.252 126.79 299.579 126.79 299.973V302.434C126.79 302.61 126.805 302.797 126.834 302.995C126.867 303.194 126.914 303.365 126.976 303.508V303.586H126.033C125.988 303.482 125.952 303.344 125.926 303.171C125.9 302.995 125.887 302.833 125.887 302.683ZM126.043 300.383L126.053 301.018H125.14C124.883 301.018 124.653 301.039 124.451 301.081C124.25 301.12 124.08 301.181 123.944 301.262C123.807 301.343 123.703 301.446 123.631 301.57C123.559 301.69 123.524 301.832 123.524 301.994C123.524 302.16 123.561 302.312 123.636 302.448C123.711 302.585 123.823 302.694 123.973 302.776C124.126 302.854 124.313 302.893 124.534 302.893C124.811 302.893 125.055 302.834 125.267 302.717C125.478 302.6 125.646 302.457 125.77 302.287C125.897 302.118 125.965 301.954 125.975 301.794L126.361 302.229C126.338 302.365 126.276 302.517 126.175 302.683C126.074 302.849 125.939 303.008 125.77 303.161C125.604 303.311 125.405 303.436 125.174 303.537C124.946 303.635 124.689 303.684 124.403 303.684C124.044 303.684 123.73 303.614 123.46 303.474C123.193 303.334 122.985 303.147 122.835 302.912C122.689 302.675 122.615 302.409 122.615 302.116C122.615 301.833 122.671 301.584 122.781 301.369C122.892 301.151 123.052 300.971 123.26 300.827C123.468 300.681 123.719 300.57 124.012 300.495C124.305 300.42 124.632 300.383 124.993 300.383H126.043ZM129.114 299.319V305.617H128.206V298.303H129.036L129.114 299.319ZM132.674 300.901V301.003C132.674 301.387 132.628 301.744 132.537 302.073C132.446 302.398 132.313 302.681 132.137 302.922C131.964 303.163 131.751 303.35 131.497 303.484C131.243 303.617 130.952 303.684 130.623 303.684C130.288 303.684 129.992 303.628 129.735 303.518C129.477 303.407 129.259 303.246 129.08 303.034C128.901 302.823 128.758 302.569 128.651 302.273C128.546 301.976 128.475 301.643 128.436 301.272V300.725C128.475 300.334 128.548 299.984 128.655 299.675C128.763 299.366 128.904 299.102 129.08 298.884C129.259 298.663 129.476 298.495 129.73 298.381C129.984 298.264 130.277 298.205 130.609 298.205C130.941 298.205 131.235 298.27 131.492 298.401C131.75 298.528 131.966 298.71 132.142 298.948C132.318 299.185 132.449 299.47 132.537 299.802C132.628 300.131 132.674 300.497 132.674 300.901ZM131.766 301.003V300.901C131.766 300.637 131.738 300.39 131.683 300.158C131.627 299.924 131.541 299.719 131.424 299.543C131.31 299.364 131.164 299.224 130.985 299.123C130.806 299.019 130.592 298.967 130.345 298.967C130.117 298.967 129.918 299.006 129.749 299.084C129.583 299.162 129.442 299.268 129.324 299.402C129.207 299.532 129.111 299.682 129.036 299.851C128.965 300.017 128.911 300.189 128.875 300.368V301.633C128.94 301.861 129.031 302.076 129.149 302.278C129.266 302.476 129.422 302.637 129.617 302.761C129.813 302.881 130.058 302.942 130.355 302.942C130.599 302.942 130.809 302.891 130.985 302.79C131.164 302.686 131.31 302.545 131.424 302.365C131.541 302.186 131.627 301.981 131.683 301.75C131.738 301.516 131.766 301.267 131.766 301.003Z" fill="#A3A3A3"/>
<path d="M159.831 297.107L157.477 303.586H156.516L159.225 296.477H159.846L159.831 297.107ZM161.804 303.586L159.445 297.107L159.431 296.477H160.051L162.77 303.586H161.804ZM161.682 300.954V301.726H157.687V300.954H161.682ZM167.106 298.303V299.05H164.435V298.303H167.106ZM164.567 298.303V303.586H163.664V298.303H164.567ZM167.907 298.303V303.586H166.999V298.303H167.907ZM170.261 299.319V305.617H169.352V298.303H170.182L170.261 299.319ZM173.82 300.901V301.003C173.82 301.387 173.775 301.744 173.683 302.073C173.592 302.398 173.459 302.681 173.283 302.922C173.111 303.163 172.897 303.35 172.643 303.484C172.39 303.617 172.098 303.684 171.769 303.684C171.434 303.684 171.138 303.628 170.881 303.518C170.624 303.407 170.405 303.246 170.226 303.034C170.047 302.823 169.904 302.569 169.797 302.273C169.693 301.976 169.621 301.643 169.582 301.272V300.725C169.621 300.334 169.694 299.984 169.802 299.675C169.909 299.366 170.051 299.102 170.226 298.884C170.405 298.663 170.622 298.495 170.876 298.381C171.13 298.264 171.423 298.205 171.755 298.205C172.087 298.205 172.381 298.27 172.639 298.401C172.896 298.528 173.112 298.71 173.288 298.948C173.464 299.185 173.596 299.47 173.683 299.802C173.775 300.131 173.82 300.497 173.82 300.901ZM172.912 301.003V300.901C172.912 300.637 172.884 300.39 172.829 300.158C172.774 299.924 172.687 299.719 172.57 299.543C172.456 299.364 172.31 299.224 172.131 299.123C171.952 299.019 171.738 298.967 171.491 298.967C171.263 298.967 171.065 299.006 170.895 299.084C170.729 299.162 170.588 299.268 170.471 299.402C170.353 299.532 170.257 299.682 170.182 299.851C170.111 300.017 170.057 300.189 170.021 300.368V301.633C170.086 301.861 170.178 302.076 170.295 302.278C170.412 302.476 170.568 302.637 170.764 302.761C170.959 302.881 171.205 302.942 171.501 302.942C171.745 302.942 171.955 302.891 172.131 302.79C172.31 302.686 172.456 302.545 172.57 302.365C172.687 302.186 172.774 301.981 172.829 301.75C172.884 301.516 172.912 301.267 172.912 301.003Z" fill="#A3A3A3"/>
<path d="M198.565 296.477H199.478L201.807 302.273L204.132 296.477H205.049L202.159 303.586H201.446L198.565 296.477ZM198.267 296.477H199.073L199.205 300.813V303.586H198.267V296.477ZM204.537 296.477H205.342V303.586H204.405V300.813L204.537 296.477ZM209.976 302.683V299.963C209.976 299.755 209.934 299.574 209.849 299.421C209.768 299.265 209.644 299.144 209.478 299.06C209.312 298.975 209.107 298.933 208.863 298.933C208.635 298.933 208.435 298.972 208.262 299.05C208.093 299.128 207.96 299.231 207.862 299.358C207.768 299.485 207.72 299.621 207.72 299.768H206.817C206.817 299.579 206.866 299.392 206.964 299.206C207.061 299.021 207.201 298.853 207.383 298.703C207.569 298.55 207.79 298.43 208.048 298.342C208.308 298.251 208.598 298.205 208.917 298.205C209.301 298.205 209.639 298.27 209.932 298.401C210.229 298.531 210.46 298.728 210.626 298.991C210.795 299.252 210.88 299.579 210.88 299.973V302.434C210.88 302.61 210.894 302.797 210.924 302.995C210.956 303.194 211.003 303.365 211.065 303.508V303.586H210.123C210.077 303.482 210.041 303.344 210.015 303.171C209.989 302.995 209.976 302.833 209.976 302.683ZM210.132 300.383L210.142 301.018H209.229C208.972 301.018 208.743 301.039 208.541 301.081C208.339 301.12 208.17 301.181 208.033 301.262C207.896 301.343 207.792 301.446 207.72 301.57C207.649 301.69 207.613 301.832 207.613 301.994C207.613 302.16 207.65 302.312 207.725 302.448C207.8 302.585 207.912 302.694 208.062 302.776C208.215 302.854 208.402 302.893 208.624 302.893C208.9 302.893 209.145 302.834 209.356 302.717C209.568 302.6 209.735 302.457 209.859 302.287C209.986 302.118 210.054 301.954 210.064 301.794L210.45 302.229C210.427 302.365 210.365 302.517 210.264 302.683C210.163 302.849 210.028 303.008 209.859 303.161C209.693 303.311 209.494 303.436 209.263 303.537C209.035 303.635 208.778 303.684 208.492 303.684C208.134 303.684 207.82 303.614 207.549 303.474C207.283 303.334 207.074 303.147 206.924 302.912C206.778 302.675 206.705 302.409 206.705 302.116C206.705 301.833 206.76 301.584 206.871 301.369C206.981 301.151 207.141 300.971 207.349 300.827C207.558 300.681 207.808 300.57 208.101 300.495C208.394 300.42 208.721 300.383 209.083 300.383H210.132ZM213.277 302.156L215.714 298.303H216.622V303.586H215.714V299.734L213.277 303.586H212.379V298.303H213.277V302.156ZM215.22 296.389H215.953C215.953 296.643 215.894 296.869 215.777 297.068C215.66 297.263 215.492 297.416 215.274 297.527C215.056 297.637 214.797 297.693 214.498 297.693C214.045 297.693 213.687 297.572 213.424 297.331C213.163 297.087 213.033 296.773 213.033 296.389H213.765C213.765 296.581 213.821 296.75 213.931 296.897C214.042 297.043 214.231 297.116 214.498 297.116C214.758 297.116 214.944 297.043 215.054 296.897C215.165 296.75 215.22 296.581 215.22 296.389Z" fill="#A3A3A3"/>
<path d="M240.766 301.955L244.267 296.477H245.209V303.586H244.267V298.103L240.766 303.586H239.829V296.477H240.766V301.955ZM249.794 300.544V301.281H246.987V300.544H249.794ZM247.773 298.303V303.586H246.87V298.303H247.773ZM249.023 301.003V300.891C249.023 300.51 249.078 300.157 249.189 299.831C249.3 299.503 249.459 299.218 249.667 298.977C249.879 298.733 250.131 298.544 250.424 298.41C250.721 298.274 251.053 298.205 251.42 298.205C251.795 298.205 252.13 298.274 252.426 298.41C252.722 298.544 252.975 298.733 253.183 298.977C253.395 299.218 253.556 299.503 253.666 299.831C253.777 300.157 253.832 300.51 253.832 300.891V301.003C253.832 301.384 253.777 301.737 253.666 302.063C253.556 302.388 253.396 302.673 253.188 302.917C252.98 303.158 252.727 303.347 252.431 303.484C252.135 303.617 251.801 303.684 251.43 303.684C251.059 303.684 250.725 303.617 250.429 303.484C250.133 303.347 249.879 303.158 249.667 302.917C249.459 302.673 249.3 302.388 249.189 302.063C249.078 301.737 249.023 301.384 249.023 301.003ZM249.931 300.891V301.003C249.931 301.267 249.962 301.516 250.024 301.75C250.086 301.981 250.179 302.186 250.302 302.365C250.429 302.545 250.585 302.686 250.771 302.79C250.96 302.891 251.179 302.942 251.43 302.942C251.681 302.942 251.899 302.891 252.084 302.79C252.273 302.686 252.429 302.545 252.553 302.365C252.677 302.186 252.77 301.981 252.832 301.75C252.897 301.516 252.929 301.267 252.929 301.003V300.891C252.929 300.63 252.897 300.385 252.832 300.154C252.77 299.919 252.675 299.712 252.548 299.533C252.425 299.351 252.268 299.208 252.08 299.104C251.891 299 251.671 298.948 251.42 298.948C251.173 298.948 250.957 299 250.771 299.104C250.585 299.208 250.429 299.351 250.302 299.533C250.179 299.712 250.086 299.919 250.024 300.154C249.962 300.385 249.931 300.63 249.931 300.891ZM258.535 300.593V301.325H255.742V300.593H258.535ZM255.932 298.303V303.586H255.029V298.303H255.932ZM259.267 298.303V303.586H258.359V298.303H259.267Z" fill="#A3A3A3"/>
<path d="M282.879 301.955L286.38 296.477H287.322V303.586H286.38V298.103L282.879 303.586H281.942V296.477H282.879V301.955ZM291.907 300.544V301.281H289.1V300.544H291.907ZM289.886 298.303V303.586H288.983V298.303H289.886ZM291.136 301.003V300.891C291.136 300.51 291.191 300.157 291.302 299.831C291.413 299.503 291.572 299.218 291.78 298.977C291.992 298.733 292.244 298.544 292.537 298.41C292.834 298.274 293.166 298.205 293.533 298.205C293.908 298.205 294.243 298.274 294.539 298.41C294.835 298.544 295.088 298.733 295.296 298.977C295.508 299.218 295.669 299.503 295.78 299.831C295.89 300.157 295.946 300.51 295.946 300.891V301.003C295.946 301.384 295.89 301.737 295.78 302.063C295.669 302.388 295.509 302.673 295.301 302.917C295.093 303.158 294.84 303.347 294.544 303.484C294.248 303.617 293.914 303.684 293.543 303.684C293.172 303.684 292.838 303.617 292.542 303.484C292.246 303.347 291.992 303.158 291.78 302.917C291.572 302.673 291.413 302.388 291.302 302.063C291.191 301.737 291.136 301.384 291.136 301.003ZM292.044 300.891V301.003C292.044 301.267 292.075 301.516 292.137 301.75C292.199 301.981 292.292 302.186 292.415 302.365C292.542 302.545 292.698 302.686 292.884 302.79C293.073 302.891 293.293 302.942 293.543 302.942C293.794 302.942 294.012 302.891 294.197 302.79C294.386 302.686 294.543 302.545 294.666 302.365C294.79 302.186 294.883 301.981 294.945 301.75C295.01 301.516 295.042 301.267 295.042 301.003V300.891C295.042 300.63 295.01 300.385 294.945 300.154C294.883 299.919 294.788 299.712 294.661 299.533C294.538 299.351 294.381 299.208 294.193 299.104C294.004 299 293.784 298.948 293.533 298.948C293.286 298.948 293.07 299 292.884 299.104C292.698 299.208 292.542 299.351 292.415 299.533C292.292 299.712 292.199 299.919 292.137 300.154C292.075 300.385 292.044 300.63 292.044 300.891ZM300.526 298.303V299.05H297.972V298.303H300.526ZM301.321 298.303V303.586H300.418V298.303H301.321ZM297.752 298.303H298.66L298.524 300.852C298.501 301.246 298.463 301.594 298.411 301.897C298.363 302.196 298.294 302.453 298.206 302.668C298.122 302.883 298.014 303.059 297.884 303.196C297.757 303.329 297.604 303.428 297.425 303.493C297.246 303.555 297.039 303.586 296.805 303.586H296.522V302.79L296.717 302.776C296.857 302.766 296.976 302.733 297.073 302.678C297.174 302.623 297.259 302.541 297.327 302.434C297.396 302.323 297.451 302.182 297.493 302.009C297.539 301.837 297.573 301.631 297.596 301.394C297.622 301.156 297.641 300.879 297.655 300.564L297.752 298.303Z" fill="#A3A3A3"/>
<path d="M329.399 297.107L327.046 303.586H326.084L328.794 296.477H329.414L329.399 297.107ZM331.372 303.586L329.014 297.107L328.999 296.477H329.619L332.339 303.586H331.372ZM331.25 300.954V301.726H327.256V300.954H331.25ZM335.635 301.262H333.901L333.892 300.539H335.308C335.588 300.539 335.82 300.512 336.006 300.456C336.195 300.401 336.336 300.318 336.431 300.207C336.525 300.097 336.572 299.96 336.572 299.797C336.572 299.67 336.545 299.559 336.489 299.465C336.437 299.367 336.357 299.288 336.25 299.226C336.143 299.161 336.009 299.114 335.85 299.084C335.693 299.052 335.509 299.035 335.298 299.035H334.141V303.586H333.237V298.303H335.298C335.633 298.303 335.934 298.332 336.201 298.391C336.471 298.449 336.701 298.539 336.89 298.659C337.082 298.777 337.228 298.926 337.329 299.109C337.43 299.291 337.48 299.506 337.48 299.753C337.48 299.913 337.448 300.064 337.383 300.207C337.318 300.351 337.222 300.477 337.095 300.588C336.968 300.699 336.812 300.79 336.626 300.862C336.44 300.93 336.227 300.974 335.986 300.993L335.635 301.262ZM335.635 303.586H333.574L334.023 302.854H335.635C335.885 302.854 336.094 302.823 336.26 302.761C336.426 302.696 336.549 302.605 336.631 302.488C336.715 302.367 336.758 302.224 336.758 302.058C336.758 301.892 336.715 301.75 336.631 301.633C336.549 301.513 336.426 301.421 336.26 301.36C336.094 301.295 335.885 301.262 335.635 301.262H334.263L334.272 300.539H335.986L336.313 300.813C336.603 300.836 336.849 300.907 337.051 301.028C337.253 301.148 337.406 301.301 337.51 301.487C337.614 301.669 337.666 301.867 337.666 302.082C337.666 302.33 337.619 302.548 337.524 302.737C337.433 302.925 337.3 303.083 337.124 303.21C336.948 303.334 336.735 303.428 336.484 303.493C336.234 303.555 335.951 303.586 335.635 303.586ZM342.29 298.303V299.05H339.849V303.586H338.945V298.303H342.29Z" fill="#A3A3A3"/>
<path d="M372.071 301.325H373.008C372.96 301.775 372.831 302.177 372.623 302.531C372.414 302.886 372.12 303.168 371.739 303.376C371.358 303.581 370.883 303.684 370.313 303.684C369.896 303.684 369.517 303.606 369.175 303.449C368.837 303.293 368.546 303.072 368.301 302.785C368.057 302.496 367.868 302.149 367.735 301.745C367.605 301.338 367.54 300.886 367.54 300.388V299.68C367.54 299.182 367.605 298.731 367.735 298.327C367.868 297.92 368.059 297.572 368.306 297.282C368.557 296.993 368.858 296.77 369.21 296.614C369.561 296.457 369.957 296.379 370.396 296.379C370.933 296.379 371.387 296.48 371.758 296.682C372.13 296.884 372.418 297.164 372.623 297.522C372.831 297.877 372.96 298.288 373.008 298.757H372.071C372.025 298.425 371.941 298.14 371.817 297.903C371.693 297.662 371.518 297.476 371.29 297.346C371.062 297.216 370.764 297.151 370.396 297.151C370.08 297.151 369.802 297.211 369.561 297.331C369.324 297.452 369.123 297.623 368.961 297.844C368.801 298.065 368.681 298.331 368.599 298.64C368.518 298.949 368.477 299.293 368.477 299.67V300.388C368.477 300.736 368.513 301.063 368.585 301.369C368.659 301.675 368.772 301.944 368.922 302.175C369.071 302.406 369.262 302.588 369.493 302.722C369.724 302.852 369.997 302.917 370.313 302.917C370.714 302.917 371.033 302.854 371.27 302.727C371.508 302.6 371.687 302.418 371.807 302.18C371.931 301.942 372.019 301.657 372.071 301.325ZM376.348 303.684C375.98 303.684 375.647 303.622 375.347 303.498C375.051 303.371 374.796 303.194 374.581 302.966C374.369 302.738 374.206 302.468 374.092 302.156C373.978 301.843 373.922 301.501 373.922 301.13V300.925C373.922 300.495 373.985 300.113 374.112 299.778C374.239 299.439 374.411 299.153 374.63 298.918C374.848 298.684 375.095 298.506 375.372 298.386C375.648 298.266 375.935 298.205 376.231 298.205C376.609 298.205 376.934 298.27 377.208 298.401C377.484 298.531 377.711 298.713 377.886 298.948C378.062 299.179 378.192 299.452 378.277 299.768C378.362 300.08 378.404 300.422 378.404 300.793V301.198H374.459V300.461H377.501V300.393C377.488 300.158 377.439 299.931 377.354 299.709C377.273 299.488 377.143 299.306 376.964 299.162C376.784 299.019 376.54 298.948 376.231 298.948C376.026 298.948 375.837 298.991 375.665 299.079C375.492 299.164 375.344 299.291 375.22 299.46C375.097 299.629 375.001 299.836 374.932 300.08C374.864 300.324 374.83 300.606 374.83 300.925V301.13C374.83 301.381 374.864 301.617 374.932 301.838C375.004 302.056 375.106 302.248 375.24 302.414C375.377 302.58 375.541 302.711 375.733 302.805C375.928 302.899 376.15 302.947 376.397 302.947C376.716 302.947 376.986 302.881 377.208 302.751C377.429 302.621 377.623 302.447 377.789 302.229L378.336 302.663C378.222 302.836 378.077 303 377.901 303.156C377.725 303.313 377.509 303.44 377.252 303.537C376.998 303.635 376.697 303.684 376.348 303.684ZM383.043 300.593V301.325H380.25V300.593H383.043ZM380.44 298.303V303.586H379.537V298.303H380.44ZM383.775 298.303V303.586H382.867V298.303H383.775Z" fill="#A3A3A3"/>
<path d="M415.576 299.807V300.256C415.576 300.79 415.509 301.268 415.375 301.692C415.242 302.115 415.05 302.475 414.799 302.771C414.549 303.067 414.248 303.293 413.896 303.449C413.548 303.606 413.157 303.684 412.724 303.684C412.304 303.684 411.918 303.606 411.567 303.449C411.219 303.293 410.916 303.067 410.659 302.771C410.405 302.475 410.208 302.115 410.068 301.692C409.928 301.268 409.858 300.79 409.858 300.256V299.807C409.858 299.273 409.926 298.796 410.063 298.376C410.203 297.953 410.4 297.593 410.654 297.297C410.908 296.998 411.209 296.77 411.557 296.614C411.909 296.457 412.294 296.379 412.714 296.379C413.147 296.379 413.538 296.457 413.886 296.614C414.238 296.77 414.539 296.998 414.79 297.297C415.043 297.593 415.237 297.953 415.371 298.376C415.507 298.796 415.576 299.273 415.576 299.807ZM414.643 300.256V299.797C414.643 299.374 414.599 299 414.511 298.674C414.427 298.349 414.301 298.075 414.135 297.854C413.969 297.632 413.766 297.465 413.525 297.351C413.287 297.237 413.017 297.18 412.714 297.18C412.421 297.18 412.156 297.237 411.918 297.351C411.684 297.465 411.482 297.632 411.313 297.854C411.147 298.075 411.018 298.349 410.927 298.674C410.836 299 410.791 299.374 410.791 299.797V300.256C410.791 300.683 410.836 301.06 410.927 301.389C411.018 301.714 411.149 301.99 411.318 302.214C411.49 302.435 411.694 302.603 411.928 302.717C412.166 302.831 412.431 302.888 412.724 302.888C413.03 302.888 413.302 302.831 413.54 302.717C413.777 302.603 413.977 302.435 414.14 302.214C414.306 301.99 414.431 301.714 414.516 301.389C414.601 301.06 414.643 300.683 414.643 300.256ZM417.832 298.303V303.586H416.928V298.303H417.832ZM421.298 298.303L418.793 301.33H417.529L417.392 300.539H418.427L420.2 298.303H421.298ZM420.327 303.586L418.383 301.194L418.964 300.539L421.474 303.586H420.327ZM424.414 298.303V303.586H423.505V298.303H424.414ZM426.186 298.303V299.035H421.767V298.303H426.186Z" fill="#A3A3A3"/>
<path d="M456.72 299.533V300.3H452.872V299.533H456.72ZM453.019 296.477V303.586H452.076V296.477H453.019ZM457.54 296.477V303.586H456.603V296.477H457.54ZM458.839 301.003V300.891C458.839 300.51 458.894 300.157 459.005 299.831C459.116 299.503 459.275 299.218 459.484 298.977C459.692 298.733 459.944 298.544 460.241 298.41C460.537 298.274 460.869 298.205 461.237 298.205C461.608 298.205 461.941 298.274 462.238 298.41C462.537 298.544 462.791 298.733 462.999 298.977C463.211 299.218 463.372 299.503 463.483 299.831C463.593 300.157 463.649 300.51 463.649 300.891V301.003C463.649 301.384 463.593 301.737 463.483 302.063C463.372 302.388 463.211 302.673 462.999 302.917C462.791 303.158 462.539 303.347 462.242 303.484C461.949 303.617 461.617 303.684 461.246 303.684C460.875 303.684 460.542 303.617 460.245 303.484C459.949 303.347 459.695 303.158 459.484 302.917C459.275 302.673 459.116 302.388 459.005 302.063C458.894 301.737 458.839 301.384 458.839 301.003ZM459.742 300.891V301.003C459.742 301.267 459.773 301.516 459.835 301.75C459.897 301.981 459.99 302.186 460.114 302.365C460.241 302.545 460.398 302.686 460.587 302.79C460.776 302.891 460.996 302.942 461.246 302.942C461.494 302.942 461.71 302.891 461.896 302.79C462.085 302.686 462.241 302.545 462.365 302.365C462.488 302.186 462.581 301.981 462.643 301.75C462.708 301.516 462.741 301.267 462.741 301.003V300.891C462.741 300.63 462.708 300.385 462.643 300.154C462.581 299.919 462.487 299.712 462.36 299.533C462.236 299.351 462.08 299.208 461.891 299.104C461.705 299 461.487 298.948 461.237 298.948C460.989 298.948 460.771 299 460.582 299.104C460.397 299.208 460.241 299.351 460.114 299.533C459.99 299.712 459.897 299.919 459.835 300.154C459.773 300.385 459.742 300.63 459.742 300.891ZM465.851 301.067H466.827L465.299 303.586H464.323L465.851 301.067ZM466.608 298.303H468.815V303.586H467.911V299.035H466.608C466.351 299.035 466.141 299.079 465.978 299.167C465.815 299.252 465.696 299.363 465.621 299.499C465.546 299.636 465.509 299.778 465.509 299.924C465.509 300.067 465.543 300.206 465.612 300.339C465.68 300.469 465.787 300.577 465.934 300.661C466.08 300.746 466.269 300.788 466.5 300.788H468.156V301.531H466.5C466.198 301.531 465.929 301.49 465.695 301.408C465.46 301.327 465.262 301.215 465.099 301.072C464.936 300.925 464.812 300.754 464.728 300.559C464.643 300.36 464.601 300.145 464.601 299.914C464.601 299.683 464.645 299.47 464.733 299.275C464.824 299.079 464.954 298.908 465.123 298.762C465.296 298.615 465.506 298.503 465.753 298.425C466.004 298.344 466.289 298.303 466.608 298.303Z" fill="#A3A3A3"/>
<path d="M490.156 302.82V303.586H484.775V302.82H490.156ZM484.926 302.82V305.334H483.994L483.989 302.82H484.926ZM490.976 302.82L490.966 305.329H490.034V302.82H490.976ZM489.233 296.477V297.248H486.118V296.477H489.233ZM490.043 296.477V303.586H489.106V296.477H490.043ZM485.795 296.477H486.738L486.591 299.338C486.572 299.768 486.531 300.165 486.469 300.53C486.407 300.891 486.331 301.221 486.24 301.521C486.149 301.82 486.044 302.089 485.927 302.326C485.81 302.561 485.685 302.764 485.551 302.937C485.418 303.106 485.278 303.246 485.131 303.357C484.988 303.464 484.843 303.541 484.697 303.586H484.267V302.82H484.57C484.654 302.728 484.75 302.597 484.858 302.424C484.968 302.252 485.078 302.029 485.185 301.755C485.296 301.478 485.392 301.142 485.473 300.744C485.558 300.347 485.615 299.878 485.644 299.338L485.795 296.477ZM494.14 303.684C493.772 303.684 493.439 303.622 493.139 303.498C492.843 303.371 492.587 303.194 492.372 302.966C492.161 302.738 491.998 302.468 491.884 302.156C491.77 301.843 491.713 301.501 491.713 301.13V300.925C491.713 300.495 491.777 300.113 491.904 299.778C492.031 299.439 492.203 299.153 492.421 298.918C492.639 298.684 492.887 298.506 493.163 298.386C493.44 298.266 493.727 298.205 494.023 298.205C494.4 298.205 494.726 298.27 494.999 298.401C495.276 298.531 495.502 298.713 495.678 298.948C495.854 299.179 495.984 299.452 496.069 299.768C496.153 300.08 496.196 300.422 496.196 300.793V301.198H492.25V300.461H495.292V300.393C495.279 300.158 495.231 299.931 495.146 299.709C495.065 299.488 494.934 299.306 494.755 299.162C494.576 299.019 494.332 298.948 494.023 298.948C493.818 298.948 493.629 298.991 493.456 299.079C493.284 299.164 493.136 299.291 493.012 299.46C492.888 299.629 492.792 299.836 492.724 300.08C492.656 300.324 492.621 300.606 492.621 300.925V301.13C492.621 301.381 492.656 301.617 492.724 301.838C492.796 302.056 492.898 302.248 493.032 302.414C493.168 302.58 493.333 302.711 493.525 302.805C493.72 302.899 493.941 302.947 494.189 302.947C494.508 302.947 494.778 302.881 494.999 302.751C495.221 302.621 495.414 302.447 495.58 302.229L496.127 302.663C496.013 302.836 495.869 303 495.693 303.156C495.517 303.313 495.301 303.44 495.043 303.537C494.789 303.635 494.488 303.684 494.14 303.684ZM498.232 298.303V303.586H497.329V298.303H498.232ZM501.699 298.303L499.194 301.33H497.929L497.792 300.539H498.828L500.6 298.303H501.699ZM500.727 303.586L498.784 301.194L499.365 300.539L501.874 303.586H500.727Z" fill="#A3A3A3"/>
<path d="M28.4865 286.439V287.523C28.4865 288.106 28.4344 288.597 28.3303 288.998C28.2261 289.398 28.0764 289.72 27.881 289.965C27.6857 290.209 27.4497 290.386 27.173 290.497C26.8996 290.604 26.5904 290.658 26.2453 290.658C25.9719 290.658 25.7196 290.624 25.4885 290.555C25.2573 290.487 25.049 290.378 24.8635 290.228C24.6812 290.075 24.5249 289.877 24.3947 289.633C24.2645 289.388 24.1652 289.092 24.0969 288.744C24.0285 288.396 23.9943 287.989 23.9943 287.523V286.439C23.9943 285.857 24.0464 285.368 24.1506 284.974C24.258 284.58 24.4094 284.265 24.6047 284.027C24.8 283.786 25.0344 283.614 25.3078 283.51C25.5845 283.405 25.8937 283.353 26.2355 283.353C26.5122 283.353 26.7661 283.387 26.9973 283.456C27.2316 283.521 27.44 283.627 27.6223 283.773C27.8045 283.916 27.9592 284.108 28.0861 284.349C28.2163 284.587 28.3156 284.878 28.384 285.223C28.4523 285.568 28.4865 285.974 28.4865 286.439ZM27.5783 287.67V286.288C27.5783 285.969 27.5588 285.689 27.5197 285.448C27.4839 285.204 27.4302 284.996 27.3586 284.823C27.287 284.65 27.1958 284.51 27.0851 284.403C26.9777 284.296 26.8524 284.218 26.7092 284.169C26.5692 284.117 26.4113 284.091 26.2355 284.091C26.0207 284.091 25.8303 284.131 25.6642 284.213C25.4982 284.291 25.3583 284.416 25.2443 284.589C25.1336 284.761 25.049 284.987 24.9904 285.267C24.9318 285.547 24.9025 285.887 24.9025 286.288V287.67C24.9025 287.989 24.9204 288.27 24.9562 288.514C24.9953 288.759 25.0523 288.97 25.1271 289.149C25.202 289.325 25.2932 289.47 25.4006 289.584C25.508 289.698 25.6317 289.782 25.7717 289.838C25.9149 289.89 26.0728 289.916 26.2453 289.916C26.4667 289.916 26.6603 289.873 26.8264 289.789C26.9924 289.704 27.1307 289.572 27.2414 289.393C27.3553 289.211 27.44 288.978 27.4953 288.695C27.5506 288.409 27.5783 288.067 27.5783 287.67Z" fill="#A3A3A3"/>
<path d="M4.4924 226.298V233.447H3.58908V227.426L1.76779 228.09V227.275L4.3508 226.298H4.4924ZM11.6115 229.326V230.41C11.6115 230.992 11.5595 231.484 11.4553 231.884C11.3511 232.285 11.2014 232.607 11.0061 232.851C10.8108 233.095 10.5748 233.273 10.2981 233.383C10.0246 233.491 9.71538 233.544 9.37033 233.544C9.09689 233.544 8.84461 233.51 8.61349 233.442C8.38237 233.373 8.17404 233.264 7.98849 233.115C7.8062 232.962 7.64995 232.763 7.51974 232.519C7.38953 232.275 7.29025 231.979 7.22189 231.63C7.15353 231.282 7.11935 230.875 7.11935 230.41V229.326C7.11935 228.743 7.17143 228.255 7.2756 227.861C7.38302 227.467 7.53439 227.151 7.7297 226.913C7.92501 226.673 8.15939 226.5 8.43283 226.396C8.70952 226.292 9.01876 226.24 9.36056 226.24C9.63725 226.24 9.89116 226.274 10.1223 226.342C10.3567 226.407 10.565 226.513 10.7473 226.66C10.9296 226.803 11.0842 226.995 11.2111 227.236C11.3414 227.473 11.4406 227.765 11.509 228.11C11.5774 228.455 11.6115 228.86 11.6115 229.326ZM10.7033 230.556V229.174C10.7033 228.855 10.6838 228.575 10.6447 228.334C10.6089 228.09 10.5552 227.882 10.4836 227.709C10.412 227.537 10.3208 227.397 10.2102 227.289C10.1027 227.182 9.97742 227.104 9.83419 227.055C9.69422 227.003 9.53634 226.977 9.36056 226.977C9.14572 226.977 8.95529 227.018 8.78927 227.099C8.62326 227.177 8.48328 227.302 8.36935 227.475C8.25867 227.648 8.17404 227.874 8.11544 228.154C8.05685 228.434 8.02755 228.774 8.02755 229.174V230.556C8.02755 230.875 8.04546 231.157 8.08126 231.401C8.12033 231.645 8.17729 231.856 8.25216 232.036C8.32703 232.211 8.41818 232.356 8.5256 232.47C8.63302 232.584 8.75672 232.669 8.89669 232.724C9.03992 232.776 9.1978 232.802 9.37033 232.802C9.59168 232.802 9.78537 232.76 9.95138 232.675C10.1174 232.591 10.2557 232.459 10.3664 232.28C10.4804 232.097 10.565 231.865 10.6203 231.581C10.6757 231.295 10.7033 230.953 10.7033 230.556ZM17.2365 229.326V230.41C17.2365 230.992 17.1845 231.484 17.0803 231.884C16.9761 232.285 16.8264 232.607 16.6311 232.851C16.4358 233.095 16.1998 233.273 15.9231 233.383C15.6496 233.491 15.3404 233.544 14.9953 233.544C14.7219 233.544 14.4696 233.51 14.2385 233.442C14.0074 233.373 13.799 233.264 13.6135 233.115C13.4312 232.962 13.2749 232.763 13.1447 232.519C13.0145 232.275 12.9152 231.979 12.8469 231.63C12.7785 231.282 12.7444 230.875 12.7444 230.41V229.326C12.7444 228.743 12.7964 228.255 12.9006 227.861C13.008 227.467 13.1594 227.151 13.3547 226.913C13.55 226.673 13.7844 226.5 14.0578 226.396C14.3345 226.292 14.6438 226.24 14.9856 226.24C15.2623 226.24 15.5162 226.274 15.7473 226.342C15.9817 226.407 16.19 226.513 16.3723 226.66C16.5546 226.803 16.7092 226.995 16.8361 227.236C16.9664 227.473 17.0656 227.765 17.134 228.11C17.2024 228.455 17.2365 228.86 17.2365 229.326ZM16.3283 230.556V229.174C16.3283 228.855 16.3088 228.575 16.2697 228.334C16.2339 228.09 16.1802 227.882 16.1086 227.709C16.037 227.537 15.9458 227.397 15.8352 227.289C15.7277 227.182 15.6024 227.104 15.4592 227.055C15.3192 227.003 15.1613 226.977 14.9856 226.977C14.7707 226.977 14.5803 227.018 14.4143 227.099C14.2483 227.177 14.1083 227.302 13.9944 227.475C13.8837 227.648 13.799 227.874 13.7404 228.154C13.6819 228.434 13.6526 228.774 13.6526 229.174V230.556C13.6526 230.875 13.6705 231.157 13.7063 231.401C13.7453 231.645 13.8023 231.856 13.8772 232.036C13.952 232.211 14.0432 232.356 14.1506 232.47C14.258 232.584 14.3817 232.669 14.5217 232.724C14.6649 232.776 14.8228 232.802 14.9953 232.802C15.2167 232.802 15.4104 232.76 15.5764 232.675C15.7424 232.591 15.8807 232.459 15.9914 232.28C16.1054 232.097 16.19 231.865 16.2453 231.581C16.3007 231.295 16.3283 230.953 16.3283 230.556ZM22.8615 229.326V230.41C22.8615 230.992 22.8095 231.484 22.7053 231.884C22.6011 232.285 22.4514 232.607 22.2561 232.851C22.0608 233.095 21.8248 233.273 21.5481 233.383C21.2746 233.491 20.9654 233.544 20.6203 233.544C20.3469 233.544 20.0946 233.51 19.8635 233.442C19.6324 233.373 19.424 233.264 19.2385 233.115C19.0562 232.962 18.8999 232.763 18.7697 232.519C18.6395 232.275 18.5402 231.979 18.4719 231.63C18.4035 231.282 18.3694 230.875 18.3694 230.41V229.326C18.3694 228.743 18.4214 228.255 18.5256 227.861C18.633 227.467 18.7844 227.151 18.9797 226.913C19.175 226.673 19.4094 226.5 19.6828 226.396C19.9595 226.292 20.2688 226.24 20.6106 226.24C20.8873 226.24 21.1412 226.274 21.3723 226.342C21.6067 226.407 21.815 226.513 21.9973 226.66C22.1796 226.803 22.3342 226.995 22.4611 227.236C22.5914 227.473 22.6906 227.765 22.759 228.11C22.8274 228.455 22.8615 228.86 22.8615 229.326ZM21.9533 230.556V229.174C21.9533 228.855 21.9338 228.575 21.8947 228.334C21.8589 228.09 21.8052 227.882 21.7336 227.709C21.662 227.537 21.5708 227.397 21.4602 227.289C21.3527 227.182 21.2274 227.104 21.0842 227.055C20.9442 227.003 20.7863 226.977 20.6106 226.977C20.3957 226.977 20.2053 227.018 20.0393 227.099C19.8733 227.177 19.7333 227.302 19.6194 227.475C19.5087 227.648 19.424 227.874 19.3654 228.154C19.3069 228.434 19.2776 228.774 19.2776 229.174V230.556C19.2776 230.875 19.2955 231.157 19.3313 231.401C19.3703 231.645 19.4273 231.856 19.5022 232.036C19.577 232.211 19.6682 232.356 19.7756 232.47C19.883 232.584 20.0067 232.669 20.1467 232.724C20.2899 232.776 20.4478 232.802 20.6203 232.802C20.8417 232.802 21.0354 232.76 21.2014 232.675C21.3674 232.591 21.5057 232.459 21.6164 232.28C21.7304 232.097 21.815 231.865 21.8703 231.581C21.9257 231.295 21.9533 230.953 21.9533 230.556ZM28.4865 229.326V230.41C28.4865 230.992 28.4345 231.484 28.3303 231.884C28.2261 232.285 28.0764 232.607 27.8811 232.851C27.6858 233.095 27.4498 233.273 27.1731 233.383C26.8996 233.491 26.5904 233.544 26.2453 233.544C25.9719 233.544 25.7196 233.51 25.4885 233.442C25.2574 233.373 25.049 233.264 24.8635 233.115C24.6812 232.962 24.5249 232.763 24.3947 232.519C24.2645 232.275 24.1652 231.979 24.0969 231.63C24.0285 231.282 23.9944 230.875 23.9944 230.41V229.326C23.9944 228.743 24.0464 228.255 24.1506 227.861C24.258 227.467 24.4094 227.151 24.6047 226.913C24.8 226.673 25.0344 226.5 25.3078 226.396C25.5845 226.292 25.8938 226.24 26.2356 226.24C26.5123 226.24 26.7662 226.274 26.9973 226.342C27.2317 226.407 27.44 226.513 27.6223 226.66C27.8046 226.803 27.9592 226.995 28.0861 227.236C28.2164 227.473 28.3156 227.765 28.384 228.11C28.4524 228.455 28.4865 228.86 28.4865 229.326ZM27.5783 230.556V229.174C27.5783 228.855 27.5588 228.575 27.5197 228.334C27.4839 228.09 27.4302 227.882 27.3586 227.709C27.287 227.537 27.1958 227.397 27.0852 227.289C26.9777 227.182 26.8524 227.104 26.7092 227.055C26.5692 227.003 26.4113 226.977 26.2356 226.977C26.0207 226.977 25.8303 227.018 25.6643 227.099C25.4983 227.177 25.3583 227.302 25.2444 227.475C25.1337 227.648 25.049 227.874 24.9904 228.154C24.9319 228.434 24.9026 228.774 24.9026 229.174V230.556C24.9026 230.875 24.9205 231.157 24.9563 231.401C24.9953 231.645 25.0523 231.856 25.1272 232.036C25.202 232.211 25.2932 232.356 25.4006 232.47C25.508 232.584 25.6317 232.669 25.7717 232.724C25.9149 232.776 26.0728 232.802 26.2453 232.802C26.4667 232.802 26.6604 232.76 26.8264 232.675C26.9924 232.591 27.1307 232.459 27.2414 232.28C27.3554 232.097 27.44 231.865 27.4953 231.581C27.5507 231.295 27.5783 230.953 27.5783 230.556Z" fill="#A3A3A3"/>
<path d="M6.18185 176.593V177.335H1.52853V176.686L3.85763 174.093C4.14409 173.774 4.36544 173.504 4.52169 173.282C4.6812 173.058 4.79188 172.857 4.85373 172.682C4.91883 172.503 4.95138 172.32 4.95138 172.135C4.95138 171.9 4.90255 171.689 4.8049 171.5C4.7105 171.308 4.57052 171.155 4.38498 171.041C4.19943 170.927 3.97482 170.87 3.71115 170.87C3.39539 170.87 3.13172 170.932 2.92013 171.056C2.7118 171.176 2.55555 171.345 2.45138 171.563C2.34722 171.782 2.29513 172.032 2.29513 172.315H1.39181C1.39181 171.915 1.4797 171.549 1.65548 171.217C1.83126 170.885 2.09168 170.621 2.43673 170.426C2.78179 170.227 3.20659 170.128 3.71115 170.128C4.16037 170.128 4.54448 170.208 4.86349 170.367C5.1825 170.523 5.42664 170.745 5.59591 171.031C5.76844 171.314 5.8547 171.646 5.8547 172.027C5.8547 172.236 5.81889 172.447 5.74728 172.662C5.67892 172.874 5.58289 173.085 5.45919 173.297C5.33875 173.508 5.19715 173.717 5.03439 173.922C4.87488 174.127 4.70399 174.329 4.52169 174.527L2.6174 176.593H6.18185ZM11.6115 173.214V174.298C11.6115 174.881 11.5595 175.372 11.4553 175.772C11.3511 176.173 11.2014 176.495 11.0061 176.739C10.8108 176.983 10.5748 177.161 10.2981 177.271C10.0246 177.379 9.71538 177.433 9.37033 177.433C9.09689 177.433 8.84461 177.398 8.61349 177.33C8.38237 177.262 8.17404 177.153 7.98849 177.003C7.8062 176.85 7.64995 176.651 7.51974 176.407C7.38953 176.163 7.29025 175.867 7.22189 175.519C7.15353 175.17 7.11935 174.763 7.11935 174.298V173.214C7.11935 172.631 7.17143 172.143 7.2756 171.749C7.38302 171.355 7.53439 171.039 7.7297 170.802C7.92501 170.561 8.15939 170.388 8.43283 170.284C8.70952 170.18 9.01876 170.128 9.36056 170.128C9.63725 170.128 9.89116 170.162 10.1223 170.23C10.3567 170.296 10.565 170.401 10.7473 170.548C10.9296 170.691 11.0842 170.883 11.2111 171.124C11.3414 171.362 11.4406 171.653 11.509 171.998C11.5774 172.343 11.6115 172.748 11.6115 173.214ZM10.7033 174.444V173.062C10.7033 172.743 10.6838 172.464 10.6447 172.223C10.6089 171.979 10.5552 171.77 10.4836 171.598C10.412 171.425 10.3208 171.285 10.2102 171.178C10.1027 171.07 9.97742 170.992 9.83419 170.943C9.69422 170.891 9.53634 170.865 9.36056 170.865C9.14572 170.865 8.95529 170.906 8.78927 170.987C8.62326 171.065 8.48328 171.191 8.36935 171.363C8.25867 171.536 8.17404 171.762 8.11544 172.042C8.05685 172.322 8.02755 172.662 8.02755 173.062V174.444C8.02755 174.763 8.04546 175.045 8.08126 175.289C8.12033 175.533 8.17729 175.745 8.25216 175.924C8.32703 176.1 8.41818 176.244 8.5256 176.358C8.63302 176.472 8.75672 176.557 8.89669 176.612C9.03992 176.664 9.1978 176.69 9.37033 176.69C9.59168 176.69 9.78537 176.648 9.95138 176.563C10.1174 176.479 10.2557 176.347 10.3664 176.168C10.4804 175.986 10.565 175.753 10.6203 175.47C10.6757 175.183 10.7033 174.841 10.7033 174.444ZM17.2365 173.214V174.298C17.2365 174.881 17.1845 175.372 17.0803 175.772C16.9761 176.173 16.8264 176.495 16.6311 176.739C16.4358 176.983 16.1998 177.161 15.9231 177.271C15.6496 177.379 15.3404 177.433 14.9953 177.433C14.7219 177.433 14.4696 177.398 14.2385 177.33C14.0074 177.262 13.799 177.153 13.6135 177.003C13.4312 176.85 13.2749 176.651 13.1447 176.407C13.0145 176.163 12.9152 175.867 12.8469 175.519C12.7785 175.17 12.7444 174.763 12.7444 174.298V173.214C12.7444 172.631 12.7964 172.143 12.9006 171.749C13.008 171.355 13.1594 171.039 13.3547 170.802C13.55 170.561 13.7844 170.388 14.0578 170.284C14.3345 170.18 14.6438 170.128 14.9856 170.128C15.2623 170.128 15.5162 170.162 15.7473 170.23C15.9817 170.296 16.19 170.401 16.3723 170.548C16.5546 170.691 16.7092 170.883 16.8361 171.124C16.9664 171.362 17.0656 171.653 17.134 171.998C17.2024 172.343 17.2365 172.748 17.2365 173.214ZM16.3283 174.444V173.062C16.3283 172.743 16.3088 172.464 16.2697 172.223C16.2339 171.979 16.1802 171.77 16.1086 171.598C16.037 171.425 15.9458 171.285 15.8352 171.178C15.7277 171.07 15.6024 170.992 15.4592 170.943C15.3192 170.891 15.1613 170.865 14.9856 170.865C14.7707 170.865 14.5803 170.906 14.4143 170.987C14.2483 171.065 14.1083 171.191 13.9944 171.363C13.8837 171.536 13.799 171.762 13.7404 172.042C13.6819 172.322 13.6526 172.662 13.6526 173.062V174.444C13.6526 174.763 13.6705 175.045 13.7063 175.289C13.7453 175.533 13.8023 175.745 13.8772 175.924C13.952 176.1 14.0432 176.244 14.1506 176.358C14.258 176.472 14.3817 176.557 14.5217 176.612C14.6649 176.664 14.8228 176.69 14.9953 176.69C15.2167 176.69 15.4104 176.648 15.5764 176.563C15.7424 176.479 15.8807 176.347 15.9914 176.168C16.1054 175.986 16.19 175.753 16.2453 175.47C16.3007 175.183 16.3283 174.841 16.3283 174.444ZM22.8615 173.214V174.298C22.8615 174.881 22.8095 175.372 22.7053 175.772C22.6011 176.173 22.4514 176.495 22.2561 176.739C22.0608 176.983 21.8248 177.161 21.5481 177.271C21.2746 177.379 20.9654 177.433 20.6203 177.433C20.3469 177.433 20.0946 177.398 19.8635 177.33C19.6324 177.262 19.424 177.153 19.2385 177.003C19.0562 176.85 18.8999 176.651 18.7697 176.407C18.6395 176.163 18.5402 175.867 18.4719 175.519C18.4035 175.17 18.3694 174.763 18.3694 174.298V173.214C18.3694 172.631 18.4214 172.143 18.5256 171.749C18.633 171.355 18.7844 171.039 18.9797 170.802C19.175 170.561 19.4094 170.388 19.6828 170.284C19.9595 170.18 20.2688 170.128 20.6106 170.128C20.8873 170.128 21.1412 170.162 21.3723 170.23C21.6067 170.296 21.815 170.401 21.9973 170.548C22.1796 170.691 22.3342 170.883 22.4611 171.124C22.5914 171.362 22.6906 171.653 22.759 171.998C22.8274 172.343 22.8615 172.748 22.8615 173.214ZM21.9533 174.444V173.062C21.9533 172.743 21.9338 172.464 21.8947 172.223C21.8589 171.979 21.8052 171.77 21.7336 171.598C21.662 171.425 21.5708 171.285 21.4602 171.178C21.3527 171.07 21.2274 170.992 21.0842 170.943C20.9442 170.891 20.7863 170.865 20.6106 170.865C20.3957 170.865 20.2053 170.906 20.0393 170.987C19.8733 171.065 19.7333 171.191 19.6194 171.363C19.5087 171.536 19.424 171.762 19.3654 172.042C19.3069 172.322 19.2776 172.662 19.2776 173.062V174.444C19.2776 174.763 19.2955 175.045 19.3313 175.289C19.3703 175.533 19.4273 175.745 19.5022 175.924C19.577 176.1 19.6682 176.244 19.7756 176.358C19.883 176.472 20.0067 176.557 20.1467 176.612C20.2899 176.664 20.4478 176.69 20.6203 176.69C20.8417 176.69 21.0354 176.648 21.2014 176.563C21.3674 176.479 21.5057 176.347 21.6164 176.168C21.7304 175.986 21.815 175.753 21.8703 175.47C21.9257 175.183 21.9533 174.841 21.9533 174.444ZM28.4865 173.214V174.298C28.4865 174.881 28.4345 175.372 28.3303 175.772C28.2261 176.173 28.0764 176.495 27.8811 176.739C27.6858 176.983 27.4498 177.161 27.1731 177.271C26.8996 177.379 26.5904 177.433 26.2453 177.433C25.9719 177.433 25.7196 177.398 25.4885 177.33C25.2574 177.262 25.049 177.153 24.8635 177.003C24.6812 176.85 24.5249 176.651 24.3947 176.407C24.2645 176.163 24.1652 175.867 24.0969 175.519C24.0285 175.17 23.9944 174.763 23.9944 174.298V173.214C23.9944 172.631 24.0464 172.143 24.1506 171.749C24.258 171.355 24.4094 171.039 24.6047 170.802C24.8 170.561 25.0344 170.388 25.3078 170.284C25.5845 170.18 25.8938 170.128 26.2356 170.128C26.5123 170.128 26.7662 170.162 26.9973 170.23C27.2317 170.296 27.44 170.401 27.6223 170.548C27.8046 170.691 27.9592 170.883 28.0861 171.124C28.2164 171.362 28.3156 171.653 28.384 171.998C28.4524 172.343 28.4865 172.748 28.4865 173.214ZM27.5783 174.444V173.062C27.5783 172.743 27.5588 172.464 27.5197 172.223C27.4839 171.979 27.4302 171.77 27.3586 171.598C27.287 171.425 27.1958 171.285 27.0852 171.178C26.9777 171.07 26.8524 170.992 26.7092 170.943C26.5692 170.891 26.4113 170.865 26.2356 170.865C26.0207 170.865 25.8303 170.906 25.6643 170.987C25.4983 171.065 25.3583 171.191 25.2444 171.363C25.1337 171.536 25.049 171.762 24.9904 172.042C24.9319 172.322 24.9026 172.662 24.9026 173.062V174.444C24.9026 174.763 24.9205 175.045 24.9563 175.289C24.9953 175.533 25.0523 175.745 25.1272 175.924C25.202 176.1 25.2932 176.244 25.4006 176.358C25.508 176.472 25.6317 176.557 25.7717 176.612C25.9149 176.664 26.0728 176.69 26.2453 176.69C26.4667 176.69 26.6604 176.648 26.8264 176.563C26.9924 176.479 27.1307 176.347 27.2414 176.168C27.3554 175.986 27.44 175.753 27.4953 175.47C27.5507 175.183 27.5783 174.841 27.5783 174.444Z" fill="#A3A3A3"/>
<path d="M2.84201 117.224H3.48654C3.80229 117.224 4.06271 117.172 4.26779 117.068C4.47612 116.961 4.63074 116.816 4.73166 116.634C4.83582 116.448 4.88791 116.24 4.88791 116.009C4.88791 115.735 4.84233 115.506 4.75119 115.32C4.66004 115.135 4.52332 114.995 4.34103 114.9C4.15874 114.806 3.92762 114.759 3.64767 114.759C3.39376 114.759 3.16916 114.809 2.97384 114.91C2.78179 115.008 2.63042 115.148 2.51974 115.33C2.41232 115.512 2.35861 115.727 2.35861 115.974H1.45529C1.45529 115.613 1.54643 115.284 1.72873 114.988C1.91102 114.692 2.16655 114.456 2.49533 114.28C2.82736 114.104 3.21147 114.016 3.64767 114.016C4.07736 114.016 4.45333 114.093 4.7756 114.246C5.09787 114.396 5.34852 114.62 5.52755 114.92C5.70659 115.216 5.79611 115.585 5.79611 116.028C5.79611 116.207 5.75379 116.399 5.66916 116.604C5.58777 116.806 5.45919 116.995 5.28341 117.171C5.11089 117.346 4.88628 117.491 4.60958 117.605C4.33289 117.716 4.00086 117.771 3.61349 117.771H2.84201V117.224ZM2.84201 117.967V117.425H3.61349C4.06597 117.425 4.44031 117.478 4.73654 117.586C5.03276 117.693 5.26551 117.836 5.43478 118.015C5.60731 118.194 5.72775 118.391 5.79611 118.606C5.86772 118.818 5.90353 119.029 5.90353 119.241C5.90353 119.573 5.84656 119.868 5.73263 120.125C5.62195 120.382 5.46408 120.6 5.259 120.779C5.05718 120.958 4.81955 121.093 4.54611 121.184C4.27267 121.275 3.97482 121.321 3.65255 121.321C3.34331 121.321 3.05197 121.277 2.77853 121.189C2.50835 121.101 2.26909 120.974 2.06076 120.808C1.85242 120.639 1.68966 120.432 1.57248 120.188C1.45529 119.941 1.39669 119.659 1.39669 119.344H2.30001C2.30001 119.591 2.35373 119.807 2.46115 119.993C2.57182 120.178 2.72807 120.323 2.9299 120.427C3.13498 120.528 3.37586 120.579 3.65255 120.579C3.92925 120.579 4.16688 120.532 4.36544 120.437C4.56727 120.34 4.72189 120.193 4.82931 119.998C4.93999 119.802 4.99533 119.557 4.99533 119.26C4.99533 118.964 4.93348 118.722 4.80978 118.533C4.68608 118.341 4.5103 118.199 4.28244 118.108C4.05783 118.014 3.79253 117.967 3.48654 117.967H2.84201ZM11.6115 117.102V118.186C11.6115 118.769 11.5595 119.26 11.4553 119.661C11.3511 120.061 11.2014 120.384 11.0061 120.628C10.8108 120.872 10.5748 121.049 10.2981 121.16C10.0246 121.267 9.71538 121.321 9.37033 121.321C9.09689 121.321 8.84461 121.287 8.61349 121.219C8.38237 121.15 8.17404 121.041 7.98849 120.891C7.8062 120.738 7.64995 120.54 7.51974 120.296C7.38953 120.052 7.29025 119.755 7.22189 119.407C7.15353 119.059 7.11935 118.652 7.11935 118.186V117.102C7.11935 116.52 7.17143 116.031 7.2756 115.637C7.38302 115.244 7.53439 114.928 7.7297 114.69C7.92501 114.449 8.15939 114.277 8.43283 114.173C8.70952 114.068 9.01876 114.016 9.36056 114.016C9.63725 114.016 9.89116 114.051 10.1223 114.119C10.3567 114.184 10.565 114.29 10.7473 114.436C10.9296 114.58 11.0842 114.772 11.2111 115.012C11.3414 115.25 11.4406 115.541 11.509 115.886C11.5774 116.232 11.6115 116.637 11.6115 117.102ZM10.7033 118.333V116.951C10.7033 116.632 10.6838 116.352 10.6447 116.111C10.6089 115.867 10.5552 115.659 10.4836 115.486C10.412 115.314 10.3208 115.174 10.2102 115.066C10.1027 114.959 9.97742 114.881 9.83419 114.832C9.69422 114.78 9.53634 114.754 9.36056 114.754C9.14572 114.754 8.95529 114.794 8.78927 114.876C8.62326 114.954 8.48328 115.079 8.36935 115.252C8.25867 115.424 8.17404 115.65 8.11544 115.93C8.05685 116.21 8.02755 116.551 8.02755 116.951V118.333C8.02755 118.652 8.04546 118.933 8.08126 119.177C8.12033 119.422 8.17729 119.633 8.25216 119.812C8.32703 119.988 8.41818 120.133 8.5256 120.247C8.63302 120.361 8.75672 120.445 8.89669 120.501C9.03992 120.553 9.1978 120.579 9.37033 120.579C9.59168 120.579 9.78537 120.537 9.95138 120.452C10.1174 120.367 10.2557 120.235 10.3664 120.056C10.4804 119.874 10.565 119.641 10.6203 119.358C10.6757 119.072 10.7033 118.73 10.7033 118.333ZM17.2365 117.102V118.186C17.2365 118.769 17.1845 119.26 17.0803 119.661C16.9761 120.061 16.8264 120.384 16.6311 120.628C16.4358 120.872 16.1998 121.049 15.9231 121.16C15.6496 121.267 15.3404 121.321 14.9953 121.321C14.7219 121.321 14.4696 121.287 14.2385 121.219C14.0074 121.15 13.799 121.041 13.6135 120.891C13.4312 120.738 13.2749 120.54 13.1447 120.296C13.0145 120.052 12.9152 119.755 12.8469 119.407C12.7785 119.059 12.7444 118.652 12.7444 118.186V117.102C12.7444 116.52 12.7964 116.031 12.9006 115.637C13.008 115.244 13.1594 114.928 13.3547 114.69C13.55 114.449 13.7844 114.277 14.0578 114.173C14.3345 114.068 14.6438 114.016 14.9856 114.016C15.2623 114.016 15.5162 114.051 15.7473 114.119C15.9817 114.184 16.19 114.29 16.3723 114.436C16.5546 114.58 16.7092 114.772 16.8361 115.012C16.9664 115.25 17.0656 115.541 17.134 115.886C17.2024 116.232 17.2365 116.637 17.2365 117.102ZM16.3283 118.333V116.951C16.3283 116.632 16.3088 116.352 16.2697 116.111C16.2339 115.867 16.1802 115.659 16.1086 115.486C16.037 115.314 15.9458 115.174 15.8352 115.066C15.7277 114.959 15.6024 114.881 15.4592 114.832C15.3192 114.78 15.1613 114.754 14.9856 114.754C14.7707 114.754 14.5803 114.794 14.4143 114.876C14.2483 114.954 14.1083 115.079 13.9944 115.252C13.8837 115.424 13.799 115.65 13.7404 115.93C13.6819 116.21 13.6526 116.551 13.6526 116.951V118.333C13.6526 118.652 13.6705 118.933 13.7063 119.177C13.7453 119.422 13.8023 119.633 13.8772 119.812C13.952 119.988 14.0432 120.133 14.1506 120.247C14.258 120.361 14.3817 120.445 14.5217 120.501C14.6649 120.553 14.8228 120.579 14.9953 120.579C15.2167 120.579 15.4104 120.537 15.5764 120.452C15.7424 120.367 15.8807 120.235 15.9914 120.056C16.1054 119.874 16.19 119.641 16.2453 119.358C16.3007 119.072 16.3283 118.73 16.3283 118.333ZM22.8615 117.102V118.186C22.8615 118.769 22.8095 119.26 22.7053 119.661C22.6011 120.061 22.4514 120.384 22.2561 120.628C22.0608 120.872 21.8248 121.049 21.5481 121.16C21.2746 121.267 20.9654 121.321 20.6203 121.321C20.3469 121.321 20.0946 121.287 19.8635 121.219C19.6324 121.15 19.424 121.041 19.2385 120.891C19.0562 120.738 18.8999 120.54 18.7697 120.296C18.6395 120.052 18.5402 119.755 18.4719 119.407C18.4035 119.059 18.3694 118.652 18.3694 118.186V117.102C18.3694 116.52 18.4214 116.031 18.5256 115.637C18.633 115.244 18.7844 114.928 18.9797 114.69C19.175 114.449 19.4094 114.277 19.6828 114.173C19.9595 114.068 20.2688 114.016 20.6106 114.016C20.8873 114.016 21.1412 114.051 21.3723 114.119C21.6067 114.184 21.815 114.29 21.9973 114.436C22.1796 114.58 22.3342 114.772 22.4611 115.012C22.5914 115.25 22.6906 115.541 22.759 115.886C22.8274 116.232 22.8615 116.637 22.8615 117.102ZM21.9533 118.333V116.951C21.9533 116.632 21.9338 116.352 21.8947 116.111C21.8589 115.867 21.8052 115.659 21.7336 115.486C21.662 115.314 21.5708 115.174 21.4602 115.066C21.3527 114.959 21.2274 114.881 21.0842 114.832C20.9442 114.78 20.7863 114.754 20.6106 114.754C20.3957 114.754 20.2053 114.794 20.0393 114.876C19.8733 114.954 19.7333 115.079 19.6194 115.252C19.5087 115.424 19.424 115.65 19.3654 115.93C19.3069 116.21 19.2776 116.551 19.2776 116.951V118.333C19.2776 118.652 19.2955 118.933 19.3313 119.177C19.3703 119.422 19.4273 119.633 19.5022 119.812C19.577 119.988 19.6682 120.133 19.7756 120.247C19.883 120.361 20.0067 120.445 20.1467 120.501C20.2899 120.553 20.4478 120.579 20.6203 120.579C20.8417 120.579 21.0354 120.537 21.2014 120.452C21.3674 120.367 21.5057 120.235 21.6164 120.056C21.7304 119.874 21.815 119.641 21.8703 119.358C21.9257 119.072 21.9533 118.73 21.9533 118.333ZM28.4865 117.102V118.186C28.4865 118.769 28.4345 119.26 28.3303 119.661C28.2261 120.061 28.0764 120.384 27.8811 120.628C27.6858 120.872 27.4498 121.049 27.1731 121.16C26.8996 121.267 26.5904 121.321 26.2453 121.321C25.9719 121.321 25.7196 121.287 25.4885 121.219C25.2574 121.15 25.049 121.041 24.8635 120.891C24.6812 120.738 24.5249 120.54 24.3947 120.296C24.2645 120.052 24.1652 119.755 24.0969 119.407C24.0285 119.059 23.9944 118.652 23.9944 118.186V117.102C23.9944 116.52 24.0464 116.031 24.1506 115.637C24.258 115.244 24.4094 114.928 24.6047 114.69C24.8 114.449 25.0344 114.277 25.3078 114.173C25.5845 114.068 25.8938 114.016 26.2356 114.016C26.5123 114.016 26.7662 114.051 26.9973 114.119C27.2317 114.184 27.44 114.29 27.6223 114.436C27.8046 114.58 27.9592 114.772 28.0861 115.012C28.2164 115.25 28.3156 115.541 28.384 115.886C28.4524 116.232 28.4865 116.637 28.4865 117.102ZM27.5783 118.333V116.951C27.5783 116.632 27.5588 116.352 27.5197 116.111C27.4839 115.867 27.4302 115.659 27.3586 115.486C27.287 115.314 27.1958 115.174 27.0852 115.066C26.9777 114.959 26.8524 114.881 26.7092 114.832C26.5692 114.78 26.4113 114.754 26.2356 114.754C26.0207 114.754 25.8303 114.794 25.6643 114.876C25.4983 114.954 25.3583 115.079 25.2444 115.252C25.1337 115.424 25.049 115.65 24.9904 115.93C24.9319 116.21 24.9026 116.551 24.9026 116.951V118.333C24.9026 118.652 24.9205 118.933 24.9563 119.177C24.9953 119.422 25.0523 119.633 25.1272 119.812C25.202 119.988 25.2932 120.133 25.4006 120.247C25.508 120.361 25.6317 120.445 25.7717 120.501C25.9149 120.553 26.0728 120.579 26.2453 120.579C26.4667 120.579 26.6604 120.537 26.8264 120.452C26.9924 120.367 27.1307 120.235 27.2414 120.056C27.3554 119.874 27.44 119.641 27.4953 119.358C27.5507 119.072 27.5783 118.73 27.5783 118.333Z" fill="#A3A3A3"/>
<path d="M6.32833 62.7191V63.4613H1.19162V62.9291L4.37521 58.0023H5.11251L4.3215 59.4281L2.21701 62.7191H6.32833ZM5.33712 58.0023V65.1117H4.4338V58.0023H5.33712ZM11.6115 60.9906V62.0746C11.6115 62.6573 11.5595 63.1488 11.4553 63.5492C11.3511 63.9496 11.2014 64.2719 11.0061 64.516C10.8108 64.7601 10.5748 64.9375 10.2981 65.0482C10.0246 65.1556 9.71538 65.2094 9.37033 65.2094C9.09689 65.2094 8.84461 65.1752 8.61349 65.1068C8.38237 65.0385 8.17404 64.9294 7.98849 64.7797C7.8062 64.6267 7.64995 64.4281 7.51974 64.184C7.38953 63.9398 7.29025 63.6436 7.22189 63.2953C7.15353 62.947 7.11935 62.5401 7.11935 62.0746V60.9906C7.11935 60.4079 7.17143 59.9196 7.2756 59.5258C7.38302 59.1319 7.53439 58.8161 7.7297 58.5785C7.92501 58.3376 8.15939 58.1651 8.43283 58.0609C8.70952 57.9567 9.01876 57.9047 9.36056 57.9047C9.63725 57.9047 9.89116 57.9388 10.1223 58.0072C10.3567 58.0723 10.565 58.1781 10.7473 58.3246C10.9296 58.4678 11.0842 58.6599 11.2111 58.9008C11.3414 59.1384 11.4406 59.4297 11.509 59.7748C11.5774 60.1198 11.6115 60.5251 11.6115 60.9906ZM10.7033 62.2211V60.8392C10.7033 60.5202 10.6838 60.2403 10.6447 59.9994C10.6089 59.7552 10.5552 59.5469 10.4836 59.3744C10.412 59.2019 10.3208 59.0619 10.2102 58.9545C10.1027 58.847 9.97742 58.7689 9.83419 58.7201C9.69422 58.668 9.53634 58.642 9.36056 58.642C9.14572 58.642 8.95529 58.6827 8.78927 58.764C8.62326 58.8422 8.48328 58.9675 8.36935 59.14C8.25867 59.3125 8.17404 59.5388 8.11544 59.8187C8.05685 60.0987 8.02755 60.4388 8.02755 60.8392V62.2211C8.02755 62.5401 8.04546 62.8217 8.08126 63.0658C8.12033 63.3099 8.17729 63.5215 8.25216 63.7006C8.32703 63.8763 8.41818 64.0212 8.5256 64.1351C8.63302 64.2491 8.75672 64.3337 8.89669 64.389C9.03992 64.4411 9.1978 64.4672 9.37033 64.4672C9.59168 64.4672 9.78537 64.4248 9.95138 64.3402C10.1174 64.2556 10.2557 64.1237 10.3664 63.9447C10.4804 63.7624 10.565 63.5297 10.6203 63.2465C10.6757 62.96 10.7033 62.6182 10.7033 62.2211ZM17.2365 60.9906V62.0746C17.2365 62.6573 17.1845 63.1488 17.0803 63.5492C16.9761 63.9496 16.8264 64.2719 16.6311 64.516C16.4358 64.7601 16.1998 64.9375 15.9231 65.0482C15.6496 65.1556 15.3404 65.2094 14.9953 65.2094C14.7219 65.2094 14.4696 65.1752 14.2385 65.1068C14.0074 65.0385 13.799 64.9294 13.6135 64.7797C13.4312 64.6267 13.2749 64.4281 13.1447 64.184C13.0145 63.9398 12.9152 63.6436 12.8469 63.2953C12.7785 62.947 12.7444 62.5401 12.7444 62.0746V60.9906C12.7444 60.4079 12.7964 59.9196 12.9006 59.5258C13.008 59.1319 13.1594 58.8161 13.3547 58.5785C13.55 58.3376 13.7844 58.1651 14.0578 58.0609C14.3345 57.9567 14.6438 57.9047 14.9856 57.9047C15.2623 57.9047 15.5162 57.9388 15.7473 58.0072C15.9817 58.0723 16.19 58.1781 16.3723 58.3246C16.5546 58.4678 16.7092 58.6599 16.8361 58.9008C16.9664 59.1384 17.0656 59.4297 17.134 59.7748C17.2024 60.1198 17.2365 60.5251 17.2365 60.9906ZM16.3283 62.2211V60.8392C16.3283 60.5202 16.3088 60.2403 16.2697 59.9994C16.2339 59.7552 16.1802 59.5469 16.1086 59.3744C16.037 59.2019 15.9458 59.0619 15.8352 58.9545C15.7277 58.847 15.6024 58.7689 15.4592 58.7201C15.3192 58.668 15.1613 58.642 14.9856 58.642C14.7707 58.642 14.5803 58.6827 14.4143 58.764C14.2483 58.8422 14.1083 58.9675 13.9944 59.14C13.8837 59.3125 13.799 59.5388 13.7404 59.8187C13.6819 60.0987 13.6526 60.4388 13.6526 60.8392V62.2211C13.6526 62.5401 13.6705 62.8217 13.7063 63.0658C13.7453 63.3099 13.8023 63.5215 13.8772 63.7006C13.952 63.8763 14.0432 64.0212 14.1506 64.1351C14.258 64.2491 14.3817 64.3337 14.5217 64.389C14.6649 64.4411 14.8228 64.4672 14.9953 64.4672C15.2167 64.4672 15.4104 64.4248 15.5764 64.3402C15.7424 64.2556 15.8807 64.1237 15.9914 63.9447C16.1054 63.7624 16.19 63.5297 16.2453 63.2465C16.3007 62.96 16.3283 62.6182 16.3283 62.2211ZM22.8615 60.9906V62.0746C22.8615 62.6573 22.8095 63.1488 22.7053 63.5492C22.6011 63.9496 22.4514 64.2719 22.2561 64.516C22.0608 64.7601 21.8248 64.9375 21.5481 65.0482C21.2746 65.1556 20.9654 65.2094 20.6203 65.2094C20.3469 65.2094 20.0946 65.1752 19.8635 65.1068C19.6324 65.0385 19.424 64.9294 19.2385 64.7797C19.0562 64.6267 18.8999 64.4281 18.7697 64.184C18.6395 63.9398 18.5402 63.6436 18.4719 63.2953C18.4035 62.947 18.3694 62.5401 18.3694 62.0746V60.9906C18.3694 60.4079 18.4214 59.9196 18.5256 59.5258C18.633 59.1319 18.7844 58.8161 18.9797 58.5785C19.175 58.3376 19.4094 58.1651 19.6828 58.0609C19.9595 57.9567 20.2688 57.9047 20.6106 57.9047C20.8873 57.9047 21.1412 57.9388 21.3723 58.0072C21.6067 58.0723 21.815 58.1781 21.9973 58.3246C22.1796 58.4678 22.3342 58.6599 22.4611 58.9008C22.5914 59.1384 22.6906 59.4297 22.759 59.7748C22.8274 60.1198 22.8615 60.5251 22.8615 60.9906ZM21.9533 62.2211V60.8392C21.9533 60.5202 21.9338 60.2403 21.8947 59.9994C21.8589 59.7552 21.8052 59.5469 21.7336 59.3744C21.662 59.2019 21.5708 59.0619 21.4602 58.9545C21.3527 58.847 21.2274 58.7689 21.0842 58.7201C20.9442 58.668 20.7863 58.642 20.6106 58.642C20.3957 58.642 20.2053 58.6827 20.0393 58.764C19.8733 58.8422 19.7333 58.9675 19.6194 59.14C19.5087 59.3125 19.424 59.5388 19.3654 59.8187C19.3069 60.0987 19.2776 60.4388 19.2776 60.8392V62.2211C19.2776 62.5401 19.2955 62.8217 19.3313 63.0658C19.3703 63.3099 19.4273 63.5215 19.5022 63.7006C19.577 63.8763 19.6682 64.0212 19.7756 64.1351C19.883 64.2491 20.0067 64.3337 20.1467 64.389C20.2899 64.4411 20.4478 64.4672 20.6203 64.4672C20.8417 64.4672 21.0354 64.4248 21.2014 64.3402C21.3674 64.2556 21.5057 64.1237 21.6164 63.9447C21.7304 63.7624 21.815 63.5297 21.8703 63.2465C21.9257 62.96 21.9533 62.6182 21.9533 62.2211ZM28.4865 60.9906V62.0746C28.4865 62.6573 28.4345 63.1488 28.3303 63.5492C28.2261 63.9496 28.0764 64.2719 27.8811 64.516C27.6858 64.7601 27.4498 64.9375 27.1731 65.0482C26.8996 65.1556 26.5904 65.2094 26.2453 65.2094C25.9719 65.2094 25.7196 65.1752 25.4885 65.1068C25.2574 65.0385 25.049 64.9294 24.8635 64.7797C24.6812 64.6267 24.5249 64.4281 24.3947 64.184C24.2645 63.9398 24.1652 63.6436 24.0969 63.2953C24.0285 62.947 23.9944 62.5401 23.9944 62.0746V60.9906C23.9944 60.4079 24.0464 59.9196 24.1506 59.5258C24.258 59.1319 24.4094 58.8161 24.6047 58.5785C24.8 58.3376 25.0344 58.1651 25.3078 58.0609C25.5845 57.9567 25.8938 57.9047 26.2356 57.9047C26.5123 57.9047 26.7662 57.9388 26.9973 58.0072C27.2317 58.0723 27.44 58.1781 27.6223 58.3246C27.8046 58.4678 27.9592 58.6599 28.0861 58.9008C28.2164 59.1384 28.3156 59.4297 28.384 59.7748C28.4524 60.1198 28.4865 60.5251 28.4865 60.9906ZM27.5783 62.2211V60.8392C27.5783 60.5202 27.5588 60.2403 27.5197 59.9994C27.4839 59.7552 27.4302 59.5469 27.3586 59.3744C27.287 59.2019 27.1958 59.0619 27.0852 58.9545C26.9777 58.847 26.8524 58.7689 26.7092 58.7201C26.5692 58.668 26.4113 58.642 26.2356 58.642C26.0207 58.642 25.8303 58.6827 25.6643 58.764C25.4983 58.8422 25.3583 58.9675 25.2444 59.14C25.1337 59.3125 25.049 59.5388 24.9904 59.8187C24.9319 60.0987 24.9026 60.4388 24.9026 60.8392V62.2211C24.9026 62.5401 24.9205 62.8217 24.9563 63.0658C24.9953 63.3099 25.0523 63.5215 25.1272 63.7006C25.202 63.8763 25.2932 64.0212 25.4006 64.1351C25.508 64.2491 25.6317 64.3337 25.7717 64.389C25.9149 64.4411 26.0728 64.4672 26.2453 64.4672C26.4667 64.4672 26.6604 64.4248 26.8264 64.3402C26.9924 64.2556 27.1307 64.1237 27.2414 63.9447C27.3554 63.7624 27.44 63.5297 27.4953 63.2465C27.5507 62.96 27.5783 62.6182 27.5783 62.2211Z" fill="#A3A3A3"/>
<path d="M2.66623 5.61621L1.94357 5.43066L2.30001 1.89062H5.94748V2.72559H3.06662L2.85177 4.65918C2.98198 4.58431 3.14637 4.51432 3.34494 4.44922C3.54676 4.38411 3.77788 4.35156 4.0383 4.35156C4.36707 4.35156 4.66167 4.40853 4.92208 4.52246C5.1825 4.63314 5.40386 4.79264 5.58615 5.00098C5.77169 5.20931 5.9133 5.45996 6.01095 5.75293C6.10861 6.0459 6.15744 6.37305 6.15744 6.73438C6.15744 7.07617 6.11024 7.3903 6.01583 7.67676C5.92469 7.96322 5.78634 8.21387 5.6008 8.42871C5.41525 8.6403 5.18087 8.80469 4.89767 8.92188C4.61772 9.03906 4.28732 9.09766 3.90646 9.09766C3.62 9.09766 3.34819 9.05859 3.09103 8.98047C2.83712 8.89909 2.60926 8.77702 2.40744 8.61426C2.20887 8.44824 2.04611 8.24316 1.91916 7.99902C1.79546 7.75163 1.71733 7.46191 1.68478 7.12988H2.54416C2.58322 7.39681 2.66134 7.62142 2.77853 7.80371C2.89572 7.986 3.04871 8.12435 3.23751 8.21875C3.42957 8.3099 3.65255 8.35547 3.90646 8.35547C4.1213 8.35547 4.31173 8.31803 4.47775 8.24316C4.64376 8.16829 4.78374 8.06087 4.89767 7.9209C5.0116 7.78092 5.09787 7.61165 5.15646 7.41309C5.21831 7.21452 5.24923 6.99154 5.24923 6.74414C5.24923 6.51953 5.21831 6.3112 5.15646 6.11914C5.09461 5.92708 5.00184 5.75944 4.87814 5.61621C4.7577 5.47298 4.60958 5.3623 4.4338 5.28418C4.25802 5.2028 4.0562 5.16211 3.82833 5.16211C3.5256 5.16211 3.29611 5.2028 3.13986 5.28418C2.98686 5.36556 2.82899 5.47624 2.66623 5.61621ZM11.6115 4.87891V5.96289C11.6115 6.54557 11.5595 7.03711 11.4553 7.4375C11.3511 7.83789 11.2014 8.16016 11.0061 8.4043C10.8108 8.64844 10.5748 8.82585 10.2981 8.93652C10.0246 9.04395 9.71538 9.09766 9.37033 9.09766C9.09689 9.09766 8.84461 9.06348 8.61349 8.99512C8.38237 8.92676 8.17404 8.81771 7.98849 8.66797C7.8062 8.51497 7.64995 8.31641 7.51974 8.07227C7.38953 7.82812 7.29025 7.5319 7.22189 7.18359C7.15353 6.83529 7.11935 6.42839 7.11935 5.96289V4.87891C7.11935 4.29622 7.17143 3.80794 7.2756 3.41406C7.38302 3.02018 7.53439 2.70443 7.7297 2.4668C7.92501 2.22591 8.15939 2.05339 8.43283 1.94922C8.70952 1.84505 9.01876 1.79297 9.36056 1.79297C9.63725 1.79297 9.89116 1.82715 10.1223 1.89551C10.3567 1.96061 10.565 2.06641 10.7473 2.21289C10.9296 2.35612 11.0842 2.54818 11.2111 2.78906C11.3414 3.02669 11.4406 3.31803 11.509 3.66309C11.5774 4.00814 11.6115 4.41341 11.6115 4.87891ZM10.7033 6.10938V4.72754C10.7033 4.40853 10.6838 4.12858 10.6447 3.8877C10.6089 3.64355 10.5552 3.43522 10.4836 3.2627C10.412 3.09017 10.3208 2.9502 10.2102 2.84277C10.1027 2.73535 9.97742 2.65723 9.83419 2.6084C9.69422 2.55632 9.53634 2.53027 9.36056 2.53027C9.14572 2.53027 8.95529 2.57096 8.78927 2.65234C8.62326 2.73047 8.48328 2.85579 8.36935 3.02832C8.25867 3.20085 8.17404 3.42708 8.11544 3.70703C8.05685 3.98698 8.02755 4.32715 8.02755 4.72754V6.10938C8.02755 6.42839 8.04546 6.70996 8.08126 6.9541C8.12033 7.19824 8.17729 7.40983 8.25216 7.58887C8.32703 7.76465 8.41818 7.90951 8.5256 8.02344C8.63302 8.13737 8.75672 8.22201 8.89669 8.27734C9.03992 8.32943 9.1978 8.35547 9.37033 8.35547C9.59168 8.35547 9.78537 8.31315 9.95138 8.22852C10.1174 8.14388 10.2557 8.01204 10.3664 7.83301C10.4804 7.65072 10.565 7.41797 10.6203 7.13477C10.6757 6.84831 10.7033 6.50651 10.7033 6.10938ZM17.2365 4.87891V5.96289C17.2365 6.54557 17.1845 7.03711 17.0803 7.4375C16.9761 7.83789 16.8264 8.16016 16.6311 8.4043C16.4358 8.64844 16.1998 8.82585 15.9231 8.93652C15.6496 9.04395 15.3404 9.09766 14.9953 9.09766C14.7219 9.09766 14.4696 9.06348 14.2385 8.99512C14.0074 8.92676 13.799 8.81771 13.6135 8.66797C13.4312 8.51497 13.2749 8.31641 13.1447 8.07227C13.0145 7.82812 12.9152 7.5319 12.8469 7.18359C12.7785 6.83529 12.7444 6.42839 12.7444 5.96289V4.87891C12.7444 4.29622 12.7964 3.80794 12.9006 3.41406C13.008 3.02018 13.1594 2.70443 13.3547 2.4668C13.55 2.22591 13.7844 2.05339 14.0578 1.94922C14.3345 1.84505 14.6438 1.79297 14.9856 1.79297C15.2623 1.79297 15.5162 1.82715 15.7473 1.89551C15.9817 1.96061 16.19 2.06641 16.3723 2.21289C16.5546 2.35612 16.7092 2.54818 16.8361 2.78906C16.9664 3.02669 17.0656 3.31803 17.134 3.66309C17.2024 4.00814 17.2365 4.41341 17.2365 4.87891ZM16.3283 6.10938V4.72754C16.3283 4.40853 16.3088 4.12858 16.2697 3.8877C16.2339 3.64355 16.1802 3.43522 16.1086 3.2627C16.037 3.09017 15.9458 2.9502 15.8352 2.84277C15.7277 2.73535 15.6024 2.65723 15.4592 2.6084C15.3192 2.55632 15.1613 2.53027 14.9856 2.53027C14.7707 2.53027 14.5803 2.57096 14.4143 2.65234C14.2483 2.73047 14.1083 2.85579 13.9944 3.02832C13.8837 3.20085 13.799 3.42708 13.7404 3.70703C13.6819 3.98698 13.6526 4.32715 13.6526 4.72754V6.10938C13.6526 6.42839 13.6705 6.70996 13.7063 6.9541C13.7453 7.19824 13.8023 7.40983 13.8772 7.58887C13.952 7.76465 14.0432 7.90951 14.1506 8.02344C14.258 8.13737 14.3817 8.22201 14.5217 8.27734C14.6649 8.32943 14.8228 8.35547 14.9953 8.35547C15.2167 8.35547 15.4104 8.31315 15.5764 8.22852C15.7424 8.14388 15.8807 8.01204 15.9914 7.83301C16.1054 7.65072 16.19 7.41797 16.2453 7.13477C16.3007 6.84831 16.3283 6.50651 16.3283 6.10938ZM22.8615 4.87891V5.96289C22.8615 6.54557 22.8095 7.03711 22.7053 7.4375C22.6011 7.83789 22.4514 8.16016 22.2561 8.4043C22.0608 8.64844 21.8248 8.82585 21.5481 8.93652C21.2746 9.04395 20.9654 9.09766 20.6203 9.09766C20.3469 9.09766 20.0946 9.06348 19.8635 8.99512C19.6324 8.92676 19.424 8.81771 19.2385 8.66797C19.0562 8.51497 18.8999 8.31641 18.7697 8.07227C18.6395 7.82812 18.5402 7.5319 18.4719 7.18359C18.4035 6.83529 18.3694 6.42839 18.3694 5.96289V4.87891C18.3694 4.29622 18.4214 3.80794 18.5256 3.41406C18.633 3.02018 18.7844 2.70443 18.9797 2.4668C19.175 2.22591 19.4094 2.05339 19.6828 1.94922C19.9595 1.84505 20.2688 1.79297 20.6106 1.79297C20.8873 1.79297 21.1412 1.82715 21.3723 1.89551C21.6067 1.96061 21.815 2.06641 21.9973 2.21289C22.1796 2.35612 22.3342 2.54818 22.4611 2.78906C22.5914 3.02669 22.6906 3.31803 22.759 3.66309C22.8274 4.00814 22.8615 4.41341 22.8615 4.87891ZM21.9533 6.10938V4.72754C21.9533 4.40853 21.9338 4.12858 21.8947 3.8877C21.8589 3.64355 21.8052 3.43522 21.7336 3.2627C21.662 3.09017 21.5708 2.9502 21.4602 2.84277C21.3527 2.73535 21.2274 2.65723 21.0842 2.6084C20.9442 2.55632 20.7863 2.53027 20.6106 2.53027C20.3957 2.53027 20.2053 2.57096 20.0393 2.65234C19.8733 2.73047 19.7333 2.85579 19.6194 3.02832C19.5087 3.20085 19.424 3.42708 19.3654 3.70703C19.3069 3.98698 19.2776 4.32715 19.2776 4.72754V6.10938C19.2776 6.42839 19.2955 6.70996 19.3313 6.9541C19.3703 7.19824 19.4273 7.40983 19.5022 7.58887C19.577 7.76465 19.6682 7.90951 19.7756 8.02344C19.883 8.13737 20.0067 8.22201 20.1467 8.27734C20.2899 8.32943 20.4478 8.35547 20.6203 8.35547C20.8417 8.35547 21.0354 8.31315 21.2014 8.22852C21.3674 8.14388 21.5057 8.01204 21.6164 7.83301C21.7304 7.65072 21.815 7.41797 21.8703 7.13477C21.9257 6.84831 21.9533 6.50651 21.9533 6.10938ZM28.4865 4.87891V5.96289C28.4865 6.54557 28.4345 7.03711 28.3303 7.4375C28.2261 7.83789 28.0764 8.16016 27.8811 8.4043C27.6858 8.64844 27.4498 8.82585 27.1731 8.93652C26.8996 9.04395 26.5904 9.09766 26.2453 9.09766C25.9719 9.09766 25.7196 9.06348 25.4885 8.99512C25.2574 8.92676 25.049 8.81771 24.8635 8.66797C24.6812 8.51497 24.5249 8.31641 24.3947 8.07227C24.2645 7.82812 24.1652 7.5319 24.0969 7.18359C24.0285 6.83529 23.9944 6.42839 23.9944 5.96289V4.87891C23.9944 4.29622 24.0464 3.80794 24.1506 3.41406C24.258 3.02018 24.4094 2.70443 24.6047 2.4668C24.8 2.22591 25.0344 2.05339 25.3078 1.94922C25.5845 1.84505 25.8938 1.79297 26.2356 1.79297C26.5123 1.79297 26.7662 1.82715 26.9973 1.89551C27.2317 1.96061 27.44 2.06641 27.6223 2.21289C27.8046 2.35612 27.9592 2.54818 28.0861 2.78906C28.2164 3.02669 28.3156 3.31803 28.384 3.66309C28.4524 4.00814 28.4865 4.41341 28.4865 4.87891ZM27.5783 6.10938V4.72754C27.5783 4.40853 27.5588 4.12858 27.5197 3.8877C27.4839 3.64355 27.4302 3.43522 27.3586 3.2627C27.287 3.09017 27.1958 2.9502 27.0852 2.84277C26.9777 2.73535 26.8524 2.65723 26.7092 2.6084C26.5692 2.55632 26.4113 2.53027 26.2356 2.53027C26.0207 2.53027 25.8303 2.57096 25.6643 2.65234C25.4983 2.73047 25.3583 2.85579 25.2444 3.02832C25.1337 3.20085 25.049 3.42708 24.9904 3.70703C24.9319 3.98698 24.9026 4.32715 24.9026 4.72754V6.10938C24.9026 6.42839 24.9205 6.70996 24.9563 6.9541C24.9953 7.19824 25.0523 7.40983 25.1272 7.58887C25.202 7.76465 25.2932 7.90951 25.4006 8.02344C25.508 8.13737 25.6317 8.22201 25.7717 8.27734C25.9149 8.32943 26.0728 8.35547 26.2453 8.35547C26.4667 8.35547 26.6604 8.31315 26.8264 8.22852C26.9924 8.14388 27.1307 8.01204 27.2414 7.83301C27.3554 7.65072 27.44 7.41797 27.4953 7.13477C27.5507 6.84831 27.5783 6.50651 27.5783 6.10938Z" fill="#A3A3A3"/>
<path d="M39.0778 273.787C39.0778 273.787 64.328 262 81.1615 252.378C97.995 242.755 106.412 235.367 123.245 225.674C140.079 215.982 148.496 212.402 165.329 203.915C182.163 195.429 190.579 193.034 207.413 183.243C224.246 173.453 232.663 163.053 249.497 154.963C266.33 146.874 274.747 150.89 291.58 142.794C308.414 134.699 316.831 122.865 333.664 114.486C350.497 106.107 358.914 109.156 375.748 100.898C392.581 92.6405 400.998 81.5088 417.831 73.1982C434.665 64.8877 443.082 67.8914 459.915 59.3455C476.749 50.7995 501.999 30.4686 501.999 30.4686V286.57C501.999 286.57 476.749 286.57 459.915 286.57C443.082 286.57 434.665 286.57 417.831 286.57C400.998 286.57 392.581 286.57 375.748 286.57C358.914 286.57 350.497 286.57 333.664 286.57C316.831 286.57 308.414 286.57 291.58 286.57C274.747 286.57 266.33 286.57 249.497 286.57C232.663 286.57 224.246 286.57 207.413 286.57C190.579 286.57 182.163 286.57 165.329 286.57C148.496 286.57 140.079 286.57 123.245 286.57C106.412 286.57 97.995 286.57 81.1615 286.57C64.328 286.57 39.0778 286.57 39.0778 286.57V273.787Z" fill="#F52D30"/>
</svg>
