<svg width="151" height="68" viewBox="0 0 151 68" fill="none" xmlns="http://www.w3.org/2000/svg">
<g clip-path="url(#clip0_125_423)">
<path d="M32.6965 38.7722H26.6113L20.1701 47.3537H18.3282V25.3986L29.1253 14.6824C29.9297 13.8836 30.5677 12.9354 31.0028 11.8919C31.438 10.8484 31.6617 9.73002 31.6614 8.60067C31.6611 7.47132 31.4366 6.3531 31.0009 5.30984C30.5651 4.26659 29.9266 3.31873 29.1217 2.5204C28.3169 1.72206 27.3615 1.08888 26.3101 0.657007C25.2587 0.225133 24.1319 0.00302248 22.994 0.00335731C21.8561 0.00369214 20.7294 0.226466 19.6783 0.658959C18.6272 1.09145 17.6721 1.72519 16.8678 2.524L15.8287 3.55163L14.7897 2.524C13.1499 0.988066 10.9713 0.147077 8.7168 0.17964C6.46226 0.212203 4.30931 1.11575 2.71518 2.6984C1.12104 4.28104 0.211305 6.41812 0.179165 8.65576C0.147025 10.8934 0.995014 13.0553 2.54304 14.6824L13.282 25.3517V60.0278H18.3282V52.0159H20.7986L26.6658 60.0278H32.7728L24.7585 49.2107L32.6965 38.7722ZM5.97618 5.935C6.68927 5.22887 7.65544 4.83231 8.66275 4.83231C9.67006 4.83231 10.6362 5.22887 11.3493 5.935L15.8287 10.3808L20.3118 5.935C21.0249 5.22887 21.9911 4.83231 22.9984 4.83231C24.0057 4.83231 24.9719 5.22887 25.6849 5.935C26.3964 6.64273 26.796 7.60167 26.796 8.60142C26.796 9.60117 26.3964 10.5601 25.6849 11.2678L15.8287 21.0501L5.97618 11.2678C5.26472 10.5601 4.86516 9.60117 4.86516 8.60142C4.86516 7.60167 5.26472 6.64273 5.97618 5.935Z" fill="#F52D30"/>
<path d="M50.2873 40.0234C49.4296 39.4712 48.4819 39.071 47.4863 38.8407C46.4756 38.6031 45.4406 38.4821 44.4019 38.4801C43.0077 38.4633 41.6212 38.6866 40.3039 39.14C39.1187 39.5455 38.0443 40.2181 37.1651 41.1051C36.2882 42.017 35.6562 43.1328 35.3268 44.3502L40.0496 45.0137C40.328 44.2493 40.835 43.5875 41.5028 43.1171C42.3679 42.5414 43.3982 42.2604 44.4382 42.3166C45.608 42.3166 46.5054 42.6015 47.1302 43.1712C47.4504 43.486 47.6993 43.865 47.8603 44.2828C48.0213 44.7006 48.0907 45.1476 48.0639 45.5942V45.6771C48.0783 45.8854 48.0359 46.0937 47.9413 46.2802C47.8467 46.4667 47.7034 46.6246 47.5262 46.7372C46.9976 47.0178 46.4163 47.1872 45.8187 47.2348C45.0389 47.3405 44.0204 47.4607 42.7634 47.5954C41.7466 47.7007 40.7389 47.879 39.7481 48.129C38.8255 48.3545 37.9433 48.7193 37.1324 49.2107C36.3754 49.6745 35.7502 50.3223 35.3159 51.0929C34.8382 52.0106 34.6079 53.0354 34.6474 54.0676C34.6037 55.306 34.9312 56.5295 35.5884 57.5832C36.2124 58.5372 37.1039 59.2892 38.1532 59.7466C39.3082 60.2431 40.5567 60.489 41.8152 60.4677C42.8039 60.4852 43.7878 60.329 44.7216 60.0062C46.1695 59.4988 47.3718 58.4689 48.0893 57.1216H48.2565V60.0386H53.1064V45.7925C53.1499 44.5701 52.8838 43.3565 52.3326 42.2625C51.8506 41.3579 51.1473 40.5879 50.2873 40.0234ZM48.0712 52.3909C48.0742 53.1539 47.8642 53.9027 47.4645 54.5544C47.0451 55.2313 46.4504 55.7841 45.7425 56.1553C44.928 56.5717 44.0208 56.7776 43.1049 56.7538C42.187 56.7863 41.2816 56.5343 40.5146 56.0327C39.9693 55.6031 39.6122 54.981 39.5181 54.2963C39.424 53.6116 39.6001 52.9173 40.0097 52.3585C40.3889 51.9233 40.8742 51.5919 41.4192 51.3958C42.0703 51.1511 42.7484 50.984 43.4392 50.8982L44.6271 50.7323C45.0813 50.6674 45.5426 50.5917 46.0077 50.5088C46.4326 50.4342 46.8534 50.3379 47.2683 50.2203C47.5561 50.1505 47.8284 50.0283 48.0712 49.8597V52.3909Z" fill="#F52D30"/>
<path d="M78.1883 38.7722H76.8768L70.5192 54.201L64.3286 38.7722H63.0607H60.2997H58.1926V60.0278H63.0607V45.7059L68.7608 60.0278H72.2884L78.1883 45.5509V60.0278H83.0129V38.7722H80.9494H78.1883Z" fill="#F52D30"/>
<path d="M88.1136 60.0278H92.9382V42.8827H101.334V60.0278H106.198V38.7722H88.1136V60.0278Z" fill="#F52D30"/>
<path d="M119.419 54.8248H119.193L114.26 38.7722H108.905L116.672 60.4713L116.254 61.6215C116.039 62.2838 115.652 62.8782 115.132 63.345C114.698 63.6878 114.16 63.8746 113.606 63.8751C112.938 63.8726 112.274 63.7705 111.637 63.5722L110.442 67.4736C110.891 67.6384 111.356 67.7591 111.83 67.8341C112.458 67.9434 113.095 67.9965 113.733 67.9928C114.902 68.0226 116.064 67.8038 117.141 67.351C118.084 66.9298 118.913 66.2936 119.56 65.494C120.254 64.6303 120.792 63.6545 121.152 62.6095L129.725 38.7794H124.367L119.419 54.8248Z" fill="#F52D30"/>
<path d="M145.354 54.7166C144.967 55.2384 144.457 55.6581 143.869 55.9389C143.11 56.2739 142.279 56.4119 141.452 56.3399C140.625 56.268 139.83 55.9886 139.142 55.5279C138.32 54.9168 137.69 54.0865 137.326 53.1337C136.868 51.942 136.648 50.6732 136.679 49.3982C136.647 48.1419 136.867 46.8918 137.326 45.7204C137.693 44.779 138.323 43.961 139.142 43.3622C139.94 42.8093 140.894 42.5237 141.867 42.5473C142.934 42.4985 143.979 42.869 144.773 43.5786C145.501 44.2643 145.988 45.1644 146.161 46.1458H150.985C150.918 44.7186 150.455 43.3374 149.648 42.1547C148.84 40.972 147.719 40.0335 146.408 39.4428C144.958 38.7886 143.379 38.4646 141.787 38.4945C139.881 38.4466 138 38.9287 136.356 39.8863C134.825 40.8174 133.594 42.162 132.806 43.7625C131.942 45.546 131.513 47.5062 131.553 49.4847C131.512 51.4521 131.935 53.4019 132.788 55.1781C133.566 56.7767 134.79 58.1197 136.316 59.047C137.981 60.0139 139.887 60.4973 141.816 60.4425C143.432 60.48 145.034 60.1468 146.499 59.4689C147.777 58.8633 148.866 57.9265 149.652 56.7574C150.436 55.5615 150.896 54.1858 150.989 52.7623H146.175C146.054 53.4668 145.773 54.1349 145.354 54.7166Z" fill="#F52D30"/>
</g>
<defs>
<clipPath id="clip0_125_423">
<rect width="151" height="68" fill="white"/>
</clipPath>
</defs>
</svg>
