<svg width="180" height="180" viewBox="0 0 180 180" fill="none" xmlns="http://www.w3.org/2000/svg">
<path d="M89.3289 2.99999C89.3289 2.59537 89.2471 2.19493 89.0883 1.82276C88.9295 1.4506 88.6971 1.11439 88.405 0.834383C88.1129 0.554373 87.7672 0.33634 87.3887 0.193407C87.0101 0.0504743 86.6066 -0.0144013 86.2023 0.00267231C73.6916 0.53105 61.4288 3.66426 50.1981 9.20197C38.9673 14.7397 29.0156 22.56 20.9794 32.163C12.9433 41.7659 6.99938 52.9402 3.52786 64.9712C0.0563428 77.0022 -0.866428 89.6253 0.818559 102.033C2.50355 114.441 6.7592 126.361 13.3134 137.031C19.8677 147.7 28.5762 156.885 38.8823 163.997C49.1883 171.109 60.8651 175.992 73.166 178.334C85.4669 180.676 98.1211 180.426 110.32 177.599C110.714 177.507 111.085 177.337 111.412 177.098C111.739 176.86 112.014 176.557 112.221 176.21C112.428 175.862 112.562 175.476 112.616 175.075C112.669 174.674 112.642 174.266 112.534 173.876L106.927 153.613C106.722 152.874 106.243 152.241 105.586 151.845C104.93 151.448 104.147 151.318 103.397 151.481C94.9024 153.33 86.1166 153.401 77.5929 151.689C69.0692 149.977 60.9921 146.519 53.8699 141.533C46.7477 136.547 40.7346 130.141 36.2089 122.718C31.6832 115.294 28.7429 107.015 27.573 98.4C26.4031 89.7851 27.0289 81.0213 29.4112 72.6601C31.7934 64.2989 35.8803 56.5212 41.415 49.8165C46.9496 43.1118 53.812 37.6252 61.5704 33.7019C69.3288 29.7786 77.8153 27.5036 86.4958 27.02C87.2614 26.9774 87.9816 26.6432 88.5084 26.0862C89.0353 25.5291 89.3289 24.7914 89.3289 24.0247V2.99999Z" fill="#FB9A99"/>
<path d="M113.827 173.518C113.935 173.908 114.121 174.272 114.373 174.589C114.625 174.905 114.939 175.167 115.295 175.359C115.651 175.551 116.043 175.669 116.446 175.706C116.849 175.743 117.255 175.697 117.64 175.573C137.738 169.088 154.915 155.741 166.165 137.869C177.416 119.997 182.023 98.738 179.182 77.8118C176.34 56.8856 166.23 37.6251 150.621 23.4007C135.011 9.17622 114.897 0.893787 93.7977 0.00267231C93.3935 -0.0144013 92.9899 0.0504743 92.6114 0.193407C92.2329 0.33634 91.8871 0.554373 91.5951 0.834383C91.303 1.11439 91.0706 1.4506 90.9118 1.82276C90.753 2.19493 90.6711 2.59537 90.6711 2.99999V24.0247C90.6711 24.7914 90.9647 25.5291 91.4916 26.0862C92.0185 26.6432 92.7387 26.9774 93.5043 27.02C108.119 27.8342 121.994 33.7119 132.746 43.6435C143.499 53.5751 150.457 66.9408 152.427 81.445C154.397 95.9492 151.254 110.687 143.54 123.126C135.826 135.565 124.02 144.93 110.152 149.612C109.426 149.858 108.821 150.372 108.461 151.049C108.102 151.727 108.016 152.516 108.22 153.255L113.827 173.518Z" fill="#F52D30"/>
<path d="M8.18359 100.326C7.72526 100.326 7.3125 100.235 6.94531 100.053C6.57813 99.8703 6.28385 99.6203 6.0625 99.3026C5.84115 98.9849 5.72005 98.6229 5.69922 98.2167H6.63672C6.67318 98.5787 6.83724 98.8781 7.12891 99.1151C7.42318 99.3495 7.77474 99.4667 8.18359 99.4667C8.51172 99.4667 8.80339 99.3899 9.05859 99.2362C9.31641 99.0826 9.51823 98.8716 9.66406 98.6034C9.8125 98.3326 9.88672 98.0266 9.88672 97.6854C9.88672 97.3365 9.8099 97.0253 9.65625 96.7518C9.50521 96.4758 9.29688 96.2583 9.03125 96.0995C8.76563 95.9406 8.46224 95.8599 8.12109 95.8573C7.8763 95.8547 7.625 95.8925 7.36719 95.9706C7.10938 96.0461 6.89714 96.1438 6.73047 96.2635L5.82422 96.1542L6.30859 92.2167H10.4648V93.076H7.12109L6.83984 95.4354H6.88672C7.05078 95.3052 7.25651 95.1971 7.50391 95.1112C7.7513 95.0253 8.00911 94.9823 8.27734 94.9823C8.76693 94.9823 9.20313 95.0995 9.58594 95.3339C9.97135 95.5656 10.2734 95.8833 10.4922 96.287C10.7135 96.6906 10.8242 97.1516 10.8242 97.6698C10.8242 98.1802 10.7096 98.6359 10.4805 99.037C10.2539 99.4354 9.94141 99.7505 9.54297 99.9823C9.14453 100.211 8.69141 100.326 8.18359 100.326ZM15.1885 92.2167V100.217H14.2197V93.2323H14.1729L12.2197 94.5292V93.5448L14.2197 92.2167H15.1885ZM20.0986 100.326C19.5101 100.326 19.0088 100.166 18.5947 99.8456C18.1807 99.5227 17.8643 99.0552 17.6455 98.4432C17.4268 97.8287 17.3174 97.0865 17.3174 96.2167C17.3174 95.3521 17.4268 94.6138 17.6455 94.0018C17.8669 93.3872 18.1846 92.9185 18.5986 92.5956C19.0153 92.2701 19.5153 92.1073 20.0986 92.1073C20.682 92.1073 21.1807 92.2701 21.5947 92.5956C22.0114 92.9185 22.3291 93.3872 22.5479 94.0018C22.7692 94.6138 22.8799 95.3521 22.8799 96.2167C22.8799 97.0865 22.7705 97.8287 22.5518 98.4432C22.333 99.0552 22.0166 99.5227 21.6025 99.8456C21.1885 100.166 20.6872 100.326 20.0986 100.326ZM20.0986 99.4667C20.682 99.4667 21.1351 99.1854 21.458 98.6229C21.7809 98.0604 21.9424 97.2583 21.9424 96.2167C21.9424 95.524 21.8682 94.9341 21.7197 94.4471C21.5739 93.9602 21.363 93.5891 21.0869 93.3339C20.8135 93.0787 20.484 92.951 20.0986 92.951C19.5205 92.951 19.0687 93.2362 18.7432 93.8065C18.4176 94.3742 18.2549 95.1776 18.2549 96.2167C18.2549 96.9094 18.3278 97.4979 18.4736 97.9823C18.6195 98.4667 18.8291 98.8352 19.1025 99.0878C19.3786 99.3404 19.7106 99.4667 20.0986 99.4667Z" fill="white"/>
<path d="M156.154 77.9878V77.1909L159.669 71.6284H160.248V72.8628H159.857L157.201 77.0659V77.1284H161.935V77.9878H156.154ZM159.919 79.6284V77.7456V77.3745V71.6284H160.841V79.6284H159.919ZM163.399 79.6284V78.9253L166.04 76.0347C166.349 75.6961 166.605 75.4019 166.805 75.1519C167.006 74.8993 167.154 74.6623 167.25 74.4409C167.349 74.217 167.399 73.9826 167.399 73.7378C167.399 73.4565 167.331 73.2131 167.196 73.0073C167.063 72.8016 166.881 72.6427 166.649 72.5308C166.417 72.4188 166.157 72.3628 165.868 72.3628C165.56 72.3628 165.292 72.4266 165.063 72.5542C164.836 72.6792 164.661 72.855 164.536 73.0815C164.413 73.3081 164.352 73.5737 164.352 73.8784H163.43C163.43 73.4097 163.538 72.9982 163.754 72.644C163.971 72.2899 164.265 72.0138 164.637 71.8159C165.012 71.618 165.433 71.519 165.899 71.519C166.368 71.519 166.783 71.618 167.145 71.8159C167.507 72.0138 167.791 72.2808 167.997 72.6167C168.202 72.9526 168.305 73.3263 168.305 73.7378C168.305 74.0321 168.252 74.3198 168.145 74.6011C168.041 74.8797 167.859 75.1909 167.598 75.5347C167.34 75.8758 166.982 76.2925 166.524 76.7847L164.727 78.7065V78.769H168.446V79.6284H163.399ZM172.606 71.519C172.934 71.5216 173.262 71.5841 173.59 71.7065C173.918 71.8289 174.218 72.0321 174.489 72.3159C174.76 72.5972 174.977 72.9813 175.141 73.4683C175.305 73.9552 175.387 74.5659 175.387 75.3003C175.387 76.0112 175.319 76.6427 175.184 77.1948C175.051 77.7443 174.859 78.2078 174.606 78.5854C174.356 78.9631 174.051 79.2495 173.692 79.4448C173.335 79.6401 172.931 79.7378 172.481 79.7378C172.033 79.7378 171.633 79.6493 171.282 79.4722C170.933 79.2925 170.646 79.0438 170.422 78.7261C170.201 78.4058 170.059 78.0347 169.997 77.6128H170.95C171.036 77.98 171.206 78.2834 171.461 78.5229C171.719 78.7599 172.059 78.8784 172.481 78.8784C173.098 78.8784 173.585 78.6089 173.942 78.0698C174.301 77.5308 174.481 76.769 174.481 75.7847H174.418C174.273 76.0034 174.099 76.1922 173.899 76.3511C173.698 76.5099 173.476 76.6323 173.231 76.7183C172.986 76.8042 172.726 76.8472 172.45 76.8472C171.991 76.8472 171.571 76.7339 171.188 76.5073C170.808 76.2782 170.503 75.9644 170.274 75.5659C170.047 75.1649 169.934 74.7065 169.934 74.1909C169.934 73.7013 170.043 73.2534 170.262 72.8472C170.484 72.4383 170.793 72.1128 171.192 71.8706C171.593 71.6284 172.064 71.5112 172.606 71.519ZM172.606 72.3784C172.278 72.3784 171.982 72.4604 171.719 72.6245C171.459 72.786 171.252 73.0047 171.098 73.2808C170.947 73.5542 170.872 73.8576 170.872 74.1909C170.872 74.5243 170.944 74.8276 171.09 75.1011C171.239 75.3719 171.441 75.5881 171.696 75.7495C171.954 75.9084 172.247 75.9878 172.575 75.9878C172.822 75.9878 173.053 75.9396 173.266 75.8433C173.48 75.7443 173.666 75.6102 173.825 75.4409C173.986 75.269 174.112 75.075 174.204 74.8589C174.295 74.6401 174.34 74.4123 174.34 74.1753C174.34 73.8628 174.265 73.5698 174.114 73.2964C173.965 73.0229 173.76 72.8016 173.497 72.6323C173.236 72.4631 172.939 72.3784 172.606 72.3784Z" fill="white"/>
</svg>
